<svg width="41" height="47" viewBox="0 0 41 47" fill="none" xmlns="http://www.w3.org/2000/svg">
<path d="M5.49557 9.10635L5.49544 9.10628C5.47871 9.09724 5.42865 9.04885 5.42737 8.94872C5.42732 8.85383 5.47652 8.80317 5.49414 8.79347L5.49498 8.79301L20.4895 0.503716C20.4897 0.503648 20.4898 0.503582 20.4899 0.503517C20.4938 0.501416 20.4964 0.500613 20.4975 0.500309C20.4987 0.499996 20.4993 0.5 20.4994 0.5C20.4995 0.5 20.5 0.499996 20.5012 0.500309C20.5024 0.500613 20.505 0.501419 20.5089 0.50353C20.509 0.503591 20.5091 0.503653 20.5092 0.503716L35.4443 8.76015C35.4546 8.76883 35.466 8.77784 35.4785 8.78687L35.4911 8.79586L35.5042 8.80407C35.505 8.80461 35.5073 8.80611 35.5112 8.81013C35.5153 8.81438 35.5221 8.82234 35.5308 8.8361L35.5307 8.83617L35.5368 8.84531L35.5428 8.85431L35.5452 8.85787C35.5678 8.9077 35.5714 8.93344 35.5714 8.94946V14.7142V15.05L35.8822 15.1771C36.3429 15.3653 36.7234 15.8941 36.7234 16.5742C36.7234 17.4577 36.1105 18.0557 35.496 18.0557C34.8814 18.0557 34.2685 17.4577 34.2685 16.5742C34.2685 15.8941 34.649 15.3653 35.1097 15.1771L35.4205 15.05V14.7142V9.991V9.15212L34.6826 9.5512L29.9525 12.1095L29.6904 12.2513V12.5493V19.5985C29.6904 19.6635 29.6673 19.7109 29.6449 19.7366C29.634 19.7491 29.625 19.7547 29.6205 19.7568C29.6168 19.7587 29.6155 19.7585 29.6149 19.7585H11.385C11.3844 19.7585 11.3832 19.7587 11.3794 19.7568C11.375 19.7547 11.3659 19.7491 11.355 19.7366C11.3326 19.7109 11.3095 19.6635 11.3095 19.5985V12.5493V12.2513L11.0474 12.1095L5.49557 9.10635ZM29.0395 19.4385H29.5396L29.5395 18.9384L29.5384 12.1308V12.1308V9.64514V9.2284L29.1284 9.15332L27.4499 8.84585C27.4498 8.84583 27.4497 8.84581 27.4495 8.84578C22.8381 7.99525 18.1607 7.99525 13.5492 8.84578C13.5491 8.84581 13.549 8.84583 13.5489 8.84585L11.8703 9.15332L11.4604 9.2284V9.64514V12.1308V18.9385V19.4385H11.9604H29.0395ZM20.7419 0.954435L20.5 0.820709L20.2581 0.954427L6.59825 8.50526L5.79801 8.94762L6.60226 9.38264L10.5705 11.5291L11.3084 11.9282V11.0893V9.08146C11.3084 9.06397 11.3106 9.04552 11.3164 9.02391C11.3215 9.01484 11.3282 9.00265 11.3353 8.98863L11.3354 8.98865L11.3384 8.98232L11.3511 8.95666C11.3561 8.95215 11.3619 8.94685 11.3682 8.94094L11.3757 8.93423L11.3845 8.93121L11.3845 8.93124L11.3895 8.9294C11.4063 8.92328 11.4211 8.9171 11.4329 8.91181L13.5454 8.52515L13.5461 8.52503C18.1587 7.67408 22.8354 7.67407 27.4504 8.52503L27.451 8.52514L29.5643 8.91216C29.5664 8.91309 29.5686 8.91403 29.5708 8.915C29.5809 8.91938 29.5931 8.92435 29.6069 8.9294L29.6069 8.92943L29.612 8.93121L29.6232 8.93508C29.6239 8.93574 29.6246 8.93643 29.6254 8.93715L29.6254 8.93718L29.6302 8.94164C29.6347 8.94574 29.639 8.94961 29.6429 8.95313C29.6449 8.95487 29.6468 8.95653 29.6486 8.95808C29.651 8.96292 29.6541 8.96915 29.6579 8.97723L29.6577 8.97729L29.6635 8.98861C29.6706 9.00284 29.6774 9.01516 29.6824 9.02394C29.6881 9.04565 29.6904 9.06465 29.6904 9.08146V11.0893V11.9282L30.4283 11.5291L34.3965 9.38264L35.2007 8.94764L34.4005 8.50527L20.7419 0.954435ZM11.3032 9.0466L11.3032 9.04656L11.3032 9.0466ZM11.4722 8.89315C11.4722 8.89313 11.4722 8.89314 11.4722 8.89316L11.4722 8.89315ZM29.6692 8.97605C29.6698 8.97664 29.6698 8.97661 29.6691 8.97603L29.6692 8.97605ZM34.4194 16.5742C34.4194 17.1481 34.84 17.7356 35.496 17.7356C36.1519 17.7356 36.5725 17.1481 36.5725 16.5742C36.5725 16.0003 36.1519 15.4129 35.496 15.4129C34.84 15.4129 34.4194 16.0003 34.4194 16.5742Z" stroke="#343434"/>
<path d="M26.9053 30.2691V30.7691H27.4053H39.4896C39.4901 30.7691 39.4914 30.769 39.4951 30.7708C39.4996 30.7729 39.5086 30.7786 39.5195 30.7911C39.5419 30.8168 39.565 30.8641 39.565 30.9291V45.45C39.565 45.515 39.5419 45.5623 39.5195 45.588C39.5086 45.6005 39.4996 45.6061 39.4951 45.6083C39.4914 45.6101 39.4901 45.61 39.4896 45.61H26.8299H14.1701H1.51044C1.5099 45.61 1.50862 45.6101 1.50486 45.6083C1.50042 45.6062 1.49137 45.6005 1.48048 45.588C1.45806 45.5623 1.435 45.515 1.435 45.45V34.2293C1.435 34.1643 1.45806 34.117 1.48048 34.0912C1.49137 34.0788 1.50042 34.0731 1.50486 34.071C1.50842 34.0693 1.50975 34.0693 1.51034 34.0693H1.51044H13.5947H14.0947V33.5693V23.0087C14.0947 22.9437 14.1178 22.8963 14.1402 22.8706C14.1511 22.8581 14.1601 22.8525 14.1646 22.8503C14.1681 22.8486 14.1695 22.8486 14.1701 22.8486L14.1701 22.8486H26.8299L26.8299 22.8486C26.8305 22.8486 26.8319 22.8486 26.8354 22.8503C26.8399 22.8525 26.8489 22.8581 26.8598 22.8706C26.8822 22.8963 26.9053 22.9437 26.9053 23.0087V30.2691ZM39.4141 31.5892V31.0892H38.9141H27.4053H26.9053V31.5892V44.7899V45.2899H27.4053H38.9141H39.4141V44.7899V31.5892ZM14.7456 23.1687H14.2456V23.6687V34.2293V44.7899V45.2899H14.7456H26.2544H26.7544V44.7899V30.9291V23.6687V23.1687H26.2544H14.7456ZM2.08588 34.3894H1.58588V34.8894V44.7899V45.2899H2.08588H13.5947H14.0947V44.7899V34.8894V34.3894H13.5947H2.08588Z" stroke="#343434"/>
</svg>
