<svg width="51" height="50" viewBox="0 0 51 50" fill="none" xmlns="http://www.w3.org/2000/svg">
<g opacity="0.95">
<path d="M24.8474 32.2456V32.2456L24.8395 32.2457C22.8496 32.2806 22.8575 35.2371 24.8396 35.2713L24.8396 35.2714H24.8474H26.1466C29.1963 35.3437 29.3568 39.7324 26.3458 40.0465L25.9425 40.0885V40.494V41.0712C25.9425 41.3161 25.7446 41.514 25.4996 41.514C25.2546 41.514 25.0568 41.3161 25.0568 41.0712V40.5184V40.0684H24.6068H22.8956C22.7248 40.065 22.6279 40.0037 22.5694 39.9371C22.5036 39.8622 22.4617 39.7509 22.4618 39.6255C22.4619 39.5002 22.5041 39.3887 22.5701 39.3136C22.6289 39.2468 22.7257 39.1859 22.8954 39.1827H26.1518V39.1828L26.1597 39.1827C28.1493 39.1478 28.142 36.1913 26.1596 36.1571L26.1596 36.157H26.1518H24.8527C21.8029 36.0847 21.6424 31.696 24.6535 31.3819L25.0568 31.3398V30.9343V30.3572C25.0568 30.1122 25.2546 29.9144 25.4996 29.9144C25.7446 29.9144 25.9425 30.1122 25.9425 30.3572V30.91V31.36H26.3925H28.1036C28.2744 31.3634 28.3713 31.4247 28.4298 31.4913C28.4956 31.5662 28.5376 31.6775 28.5374 31.8028C28.5373 31.9282 28.4951 32.0397 28.4291 32.1148C28.3703 32.1816 28.2736 32.2425 28.1039 32.2456H24.8474Z" stroke="#343434" stroke-width="0.9"/>
<path d="M23.2626 48.6647H23.2643H23.2658H23.2669H23.2675C23.2676 48.6647 23.2677 48.4736 23.2677 48.216C23.2677 48.2155 23.2677 48.2151 23.2677 48.2147H23.2678L23.2626 48.6647ZM23.2626 48.6647H23.2623H23.2599H23.2571H23.2538H23.2502H23.2461H23.2416H23.2366H23.2313H23.2255H23.2193H23.2127H23.2057H23.1983H23.1904H23.1822H23.1735H23.1645H23.155H23.1452H23.1349H23.1243H23.1132H23.1018H23.09H23.0778H23.0652H23.0522H23.0388H23.0251H23.0109H22.9964H22.9815H22.9662H22.9506H22.9346H22.9182H22.9014H22.8843H22.8668H22.849H22.8308H22.8122H22.7933H22.774H22.7543H22.7343H22.714H22.6933H22.6722H22.6508H22.6291H22.607H22.5846H22.5618H22.5387H22.5153H22.4915H22.4674H22.4429H22.4182H22.3931H22.3676H22.3419H22.3158H22.2894H22.2627H22.2357H22.2083H22.1807H22.1527H22.1244H22.0959H22.067H22.0378H22.0082H21.9784H21.9483H21.9179H21.8872H21.8562H21.8249H21.7933H21.7615H21.7293H21.6969H21.6641H21.6311H21.5978H21.5642H21.5304H21.4962H21.4618H21.4271H21.3922H21.357H21.3215H21.2857H21.2497H21.2134H21.1769H21.1401H21.103H21.0657H21.0281H20.9903H20.9522H20.9139H20.8754H20.8365H20.7975H20.7582H20.7186H20.6789H20.6389H20.5986H20.5581H20.5174H20.4765H20.4353H20.3939H20.3523H20.3104H20.2683H20.2261H20.1835H20.1408H20.0979H20.0547H20.0114H19.9678H19.924H19.88H19.8358H19.7915H19.7469H19.7021H19.6571H19.6119H19.5665H19.521H19.4752H19.4292H19.3831H19.3368H19.2903H19.2436H19.1967H19.1497H19.1024H19.055H19.0075H18.9597H18.9118H18.8637H18.8155H18.7671H18.7185H18.6698H18.6209H18.5718H18.5226H18.4732H18.4237H18.3741H18.3242H18.2743H18.2242H18.1739H18.1235H18.073H18.0223H17.9715H17.9205H17.8694H17.8182H17.7669H17.7154H17.6638H17.6121H17.5602H17.5082H17.4561H17.4039H17.3516H17.2991H17.2466H17.1939H17.1411H17.0883H17.0353H16.9822H16.929H16.8757H16.8223H16.7688H16.7152H16.6615H16.6077H16.5538H16.4999H16.4458H16.3917H16.3374H16.2831H16.2288H16.1743H16.1198H16.0651H16.0104H15.9557H15.9009H15.846H15.791H15.736H15.6809H15.6257H15.5705H15.5152H15.4599H15.4045H15.349H15.2936H15.238H15.1824H15.1268H15.0711H15.0154H14.9596H14.9038H14.848H14.7921H14.7362H14.6802H14.6242H14.5682H14.5122H14.4561H14.4001H14.344H14.2878H14.2317H14.1755H14.1194H14.0632H14.007H13.9507H13.8945H13.8383H13.7821H13.7258H13.6696H13.6133H13.5571H13.5009H13.4446H13.3884H13.3322H13.276H13.2198H13.1636H13.1075H13.0513H12.9952H12.9391H12.883H12.827H12.7709H12.7149H12.6589H12.603H12.5471H12.4912H12.4354H12.3796H12.3238H12.2681H12.2124H12.1567H12.1012H12.0456H11.9901H11.9347H11.8793H11.824H11.7687H11.7135H11.6583H11.6032H11.5482H11.4932H11.4383H11.3835H11.3287H11.274H11.2194H11.1649H11.1104H11.056H11.0017H10.9475H10.8934H10.8393H10.7853H10.7315H10.6777H10.624H10.5704H10.5169H10.4635H10.4102H10.357H10.3039H10.2509H10.198H10.1452H10.0926H10.04H9.98757H9.93524H9.88303H9.83093H9.77896H9.7271H9.67537H9.62377H9.5723H9.52095H9.46973H9.41864H9.36769H9.31688H9.2662H9.21566H9.16526H9.115H9.06489H9.01493H8.96511H8.91544H8.86592H8.81656H8.76734H8.71829H8.66939H8.62066H8.57208H8.52367H8.47542H8.42734H8.37942H8.33168H8.28411H8.23671H8.18949H8.14244H8.09557H8.04888H8.00238H7.95605H7.90992H7.86397H7.8182H7.77263H7.72726H7.68207H7.63708H7.59229H7.5477H7.50331H7.45912H7.41513H7.37135H7.32778H7.28442H7.24127H7.19833H7.15561H7.1131H7.07081H7.02874H6.98689H6.94527H6.90387H6.86269H6.82175H6.78103H6.74055H6.7003H6.66028H6.62051H6.58097H6.54167H6.50261H6.4638H6.42523H6.38691H6.34883H6.31101H6.27344H6.23613H6.19907H6.16227H6.12572H6.08944H6.05342H6.01767H5.98218H5.94696H5.912H5.87732H5.84291H5.80878H5.77492H5.74135H5.70805H5.67503H5.64229H5.60984H5.57768H5.54581H5.51422H5.48293H5.45193H5.42123H5.39082H5.36071H5.3309H5.30139H5.27219H5.24329H5.2147H5.18642H5.15845H5.1308H5.10345H5.07642H5.04971H5.02332H4.99725H4.97151H4.94608H4.92099H4.89622H4.87178H4.84767H4.82389H4.80045H4.77735H4.75458H4.73215H4.71007H4.68833H4.66693H4.64588H4.62518H4.60483H4.58483H4.56518H4.54589H4.52696H4.50838H4.49017H4.47231H4.45482H4.4377H4.42095H4.40456H4.38854H4.3729H4.35763H4.34274H4.32822H4.31408H4.30033H4.28695H4.27397H4.26136H4.24915H4.23732H4.22589H4.21485H4.2042H4.19395H4.1841H4.17465H4.1656H4.15695H4.14871H4.14088H4.13345H4.12644H4.11983H4.11364H4.10787H4.10251H4.09757H4.09305H4.08895H4.08528H4.08204H4.07922H4.07683H4.07487H4.07334H4.07225H4.07159C4.07144 48.6647 4.07137 48.6647 4.07137 48.2147V48.6647C2.83844 48.6647 1.83565 47.6619 1.83565 46.429V25.001C1.83565 23.7681 2.83844 22.7653 4.07137 22.7653H7.63988C7.80944 22.7628 7.90568 22.7022 7.96411 22.6357C8.0299 22.5609 8.07219 22.4491 8.07227 22.3231C8.07234 22.1971 8.03018 22.0852 7.96437 22.0102C7.90591 21.9436 7.80946 21.8826 7.63936 21.8797H7.63872H7.63788H7.63696H7.63597H7.63489H7.63374H7.63251H7.63121H7.62983H7.62837H7.62684H7.62523H7.62354H7.62179H7.61995H7.61805H7.61607H7.61401H7.61189H7.60969H7.60741H7.60507H7.60265H7.60017H7.59761H7.59498H7.59228H7.58951H7.58667H7.58376H7.58078H7.57773H7.57461H7.57142H7.56817H7.56485H7.56146H7.55801H7.55448H7.55089H7.54724H7.54352H7.53973H7.53588H7.53197H7.52798H7.52394H7.51983H7.51566H7.51142H7.50713H7.50276H7.49834H7.49386H7.48931H7.4847H7.48003H7.4753H7.47051H7.46566H7.46075H7.45578H7.45076H7.44567H7.44052H7.43532H7.43006H7.42474H7.41936H7.41393H7.40844H7.4029H7.39729H7.39164H7.38592H7.38016H7.37434H7.36846H7.36253H7.35655H7.35051H7.34442H7.33828H7.33208H7.32583H7.31954H7.31319H7.30678H7.30033H7.29383H7.28728H7.28067H7.27402H7.26732H7.26057H7.25377H7.24693H7.24003H7.23309H7.2261H7.21906H7.21198H7.20485H7.19768H7.19045H7.18319H7.17588H7.16852H7.16112H7.15368H7.14619H7.13866H7.13108H7.12346H7.1158H7.1081H7.10036H7.09257H7.08474H7.07688H7.06897H7.06102H7.05303H7.045H7.03694H7.02883H7.02069H7.0125H7.00428H6.99602H6.98773H6.97939H6.97102H6.96262H6.95417H6.9457H6.93718H6.92863H6.92005H6.91143H6.90278H6.89409H6.88538H6.87662H6.86784H6.85902H6.85017H6.84129H6.83237H6.82343H6.81445H6.80544H6.79641H6.78734H6.77824H6.76912H6.75996H6.75078H6.74156H6.73232H6.72305H6.71376H6.70443H6.69509H6.68571H6.67631H6.66688H6.65742H6.64794H6.63844H6.62891H6.61936H6.60978H6.60018H6.59056H6.58091H6.57124H6.56155H6.55184H6.5421H6.53234H6.52256H6.51277H6.50295H6.49311H6.48325H6.47337H6.46347H6.45355H6.44362H6.43367H6.42369H6.41371H6.4037H6.39368H6.38364H6.37358H6.36351H6.35342H6.34332H6.3332H6.32307H6.31292H6.30276H6.29259H6.2824H6.2722H6.26198H6.25176H6.24152H6.23127H6.22101H6.21073H6.20045H6.19015H6.17985H6.16953H6.15921H6.14888H6.13854H6.12818H6.11782H6.10746H6.09708H6.0867H6.07631H6.06592H6.05551H6.0451H6.03469H6.02427H6.01385H6.00342H5.99298H5.98254H5.9721H5.96166H5.95121H5.94076H5.9303H5.91985H5.90939H5.89893H5.88847H5.878H5.86754H5.85708H5.84662H5.83615H5.82569H5.81523H5.80477H5.79431H5.78385H5.7734H5.76295H5.7525H5.74205H5.73161H5.72118H5.71074H5.70031H5.68989H5.67947H5.66905H5.65864H5.64824H5.63785H5.62746H5.61707H5.6067H5.59633H5.58597H5.57562H5.56528H5.55495H5.54462H5.53431H5.524H5.51371H5.50342H5.49315H5.48289H5.47264H5.4624H5.45217H5.44196H5.43176H5.42157H5.4114H5.40123H5.39109H5.38096H5.37084H5.36073H5.35065H5.34057H5.33052H5.32048H5.31046H5.30045H5.29046H5.28049H5.27054H5.2606H5.25068H5.24079H5.23091H5.22105H5.21121H5.20139H5.19159H5.18181H5.17206H5.16232H5.15261H5.14291H5.13324H5.1236H5.11397H5.10437H5.0948H5.08524H5.07571H5.06621H5.05673H5.04728H5.03785H5.02844H5.01907H5.00972H5.0004H4.9911H4.98183H4.97259H4.96338H4.95419H4.94504H4.93591H4.92681H4.91775H4.90871H4.8997H4.89073H4.88178H4.87287H4.86398H4.85513H4.84631H4.83753H4.82878H4.82006H4.81137H4.80272H4.7941H4.78552H4.77697H4.76845H4.75998H4.75153H4.74313H4.73476H4.72642H4.71813H4.70987H4.70165H4.69346H4.68532H4.67721H4.66915H4.66112H4.65313H4.64518H4.63727H4.6294H4.62158H4.61379H4.60605H4.59835H4.59068H4.58307H4.57549H4.56796H4.56047H4.55303H4.54563H4.53827H4.53096H4.52369H4.51647H4.5093H4.50217H4.49508H4.48805H4.48106H4.47411H4.46722H4.46037H4.45357H4.44682H4.44012H4.43347H4.42687H4.42032H4.41381H4.40736H4.40096H4.39461H4.38831H4.38206H4.37587H4.36972H4.36363H4.3576H4.35161H4.34568H4.33981H4.33398H4.32822H4.3225H4.31685H4.31125H4.3057H4.30021H4.29478H4.2894H4.28408H4.27882H4.27362H4.26847H4.26338H4.25836H4.25339H4.24848H4.24363H4.23884H4.23411H4.22944H4.22483H4.22028H4.2158H4.21137H4.20701H4.20271H4.19848H4.19431H4.1902H4.18615H4.18217H4.17825H4.1744H4.17062H4.1669H4.16324H4.15965H4.15613H4.15267H4.14928H4.14596H4.14271H4.13952H4.13641H4.13336H4.13038H4.12747H4.12463H4.12186H4.11916H4.11652H4.11397H4.11148H4.10906H4.10672H4.10444H4.10224H4.10012H4.09806H4.09608H4.09418H4.09234H4.09058H4.0889H4.08729H4.08576H4.0843H4.08292H4.08161H4.08039H4.07923H4.07816H4.07716H4.07624H4.0754H4.07464H4.07396H4.07335H4.07283H4.07238H4.07202H4.07174H4.07153H4.07141L4.07137 21.4297V21.8797C2.3502 21.8797 0.949939 23.2799 0.949939 25.001V46.429C0.949939 48.1501 2.3502 49.5503 4.07137 49.5503H23.2628C23.4311 49.546 23.5287 49.4849 23.5885 49.4172C23.6554 49.3413 23.6977 49.2299 23.6982 49.1059C23.6988 48.9819 23.6576 48.872 23.5922 48.7977C23.5341 48.7315 23.4364 48.6692 23.2626 48.6647ZM7.64273 21.4312V21.4297H7.64275V21.8797L7.64273 21.4312Z" stroke="#343434" stroke-width="0.9"/>
<path d="M35.8362 21.1498L35.259 21.8791H36.1891H46.9286C48.6498 21.8791 50.05 23.2793 50.05 25.0004V46.4284C50.05 48.1495 48.6498 49.5497 46.9286 49.5497V49.9997C46.9286 49.5497 46.9285 49.5497 46.9284 49.5497H46.9277H46.9266H46.9251H46.9231H46.9207H46.9179H46.9147H46.911H46.9069H46.9024H46.8974H46.8921H46.8863H46.8801H46.8735H46.8665H46.8591H46.8512H46.843H46.8344H46.8253H46.8159H46.806H46.7958H46.7851H46.7741H46.7626H46.7508H46.7386H46.726H46.713H46.6996H46.6859H46.6717H46.6572H46.6423H46.6271H46.6114H46.5954H46.579H46.5623H46.5451H46.5276H46.5098H46.4916H46.473H46.4541H46.4348H46.4151H46.3951H46.3748H46.3541H46.333H46.3116H46.2899H46.2678H46.2454H46.2226H46.1995H46.1761H46.1523H46.1282H46.1037H46.079H46.0539H46.0285H46.0027H45.9766H45.9502H45.9235H45.8965H45.8692H45.8415H45.8135H45.7853H45.7567H45.7278H45.6986H45.6691H45.6392H45.6091H45.5787H45.548H45.517H45.4857H45.4542H45.4223H45.3901H45.3577H45.3249H45.2919H45.2586H45.225H45.1912H45.157H45.1226H45.088H45.053H45.0178H44.9823H44.9465H44.9105H44.8742H44.8377H44.8009H44.7638H44.7265H44.6889H44.6511H44.6131H44.5747H44.5362H44.4973H44.4583H44.419H44.3795H44.3397H44.2997H44.2594H44.2189H44.1782H44.1373H44.0961H44.0547H44.0131H43.9712H43.9291H43.8869H43.8443H43.8016H43.7587H43.7155H43.6722H43.6286H43.5848H43.5408H43.4967H43.4523H43.4077H43.3629H43.3179H43.2727H43.2273H43.1818H43.136H43.09H43.0439H42.9976H42.9511H42.9044H42.8575H42.8105H42.7632H42.7159H42.6683H42.6205H42.5726H42.5245H42.4763H42.4279H42.3793H42.3306H42.2817H42.2326H42.1834H42.134H42.0845H42.0349H41.985H41.9351H41.885H41.8347H41.7843H41.7338H41.6831H41.6323H41.5813H41.5302H41.479H41.4277H41.3762H41.3246H41.2729H41.221H41.169H41.1169H41.0647H41.0124H40.9599H40.9074H40.8547H40.8019H40.7491H40.6961H40.643H40.5898H40.5365H40.4831H40.4296H40.376H40.3223H40.2685H40.2146H40.1606H40.1066H40.0525H39.9982H39.9439H39.8895H39.8351H39.7805H39.7259H39.6712H39.6165H39.5616H39.5067H39.4518H39.3967H39.3417H39.2865H39.2313H39.176H39.1207H39.0653H39.0098H38.9543H38.8988H38.8432H38.7876H38.7319H38.6762H38.6204H38.5646H38.5088H38.4529H38.397H38.341H38.285H38.229H38.173H38.1169H38.0609H38.0048H37.9486H37.8925H37.8363H37.7801H37.724H37.6678H37.6115H37.5553H37.4991H37.4429H37.3866H37.3304H37.2741H37.2179H37.1617H37.1054H37.0492H36.993H36.9368H36.8806H36.8244H36.7683H36.7121H36.656H36.5999H36.5438H36.4878H36.4317H36.3757H36.3197H36.2638H36.2079H36.152H36.0962H36.0403H35.9846H35.9289H35.8732H35.8175H35.7619H35.7064H35.6509H35.5955H35.5401H35.4848H35.4295H35.3743H35.3191H35.264H35.209H35.154H35.0991H35.0443H34.9895H34.9348H34.8802H34.8257H34.7712H34.7168H34.6625H34.6083H34.5542H34.5001H34.4461H34.3923H34.3385H34.2848H34.2312H34.1777H34.1243H34.071H34.0178H33.9647H33.9117H33.8588H33.806H33.7534H33.7008H33.6484H33.596H33.5438H33.4917H33.4398H33.3879H33.3362H33.2846H33.2331H33.1817H33.1305H33.0794H33.0285H32.9777H32.927H32.8765H32.8261H32.7758H32.7257H32.6757H32.6259H32.5762H32.5267H32.4774H32.4281H32.3791H32.3302H32.2815H32.2329H32.1845H32.1362H32.0881H32.0402H31.9925H31.9449H31.8975H31.8503H31.8032H31.7564H31.7097H31.6632H31.6169H31.5707H31.5248H31.479H31.4334H31.3881H31.3429H31.2979H31.2531H31.2085H31.1641H31.1199H31.0759H31.0322H30.9886H30.9452H30.9021H30.8591H30.8164H30.7739H30.7316H30.6895H30.6477H30.6061H30.5647H30.5235H30.4826H30.4418H30.4014H30.3611H30.3211H30.2813H30.2418H30.2025H30.1634H30.1246H30.086H30.0477H30.0096H29.9718H29.9342H29.8969H29.8599H29.8231H29.7865H29.7502H29.7142H29.6785H29.643H29.6078H29.5728H29.5381H29.5037H29.4696H29.4357H29.4022H29.3689H29.3358H29.3031H29.2707H29.2385H29.2066H29.175H29.1437H29.1127H29.082H29.0516H29.0215H28.9917H28.9622H28.933H28.9041H28.8755H28.8472H28.8193H28.7916H28.7643H28.7372H28.7105H28.6841H28.6581H28.6323H28.6069H28.5818H28.557H28.5326H28.5085H28.4847H28.4613H28.4382H28.4154H28.393H28.3709H28.3491H28.3277H28.3067H28.286H28.2656H28.2456H28.226H28.2067H28.1878H28.1692H28.151H28.1331H28.1156H28.0985H28.0818H28.0654H28.0494H28.0337H28.0184H28.0036H27.989H27.9749H27.9611H27.9478H27.9348H27.9222H27.91H27.8981H27.8867H27.8757H27.865H27.8548H27.8449H27.8355H27.8264H27.8178H27.8095H27.8017H27.7943H27.7873H27.7807H27.7745H27.7687H27.7633H27.7584H27.7539H27.7498H27.7461H27.7429H27.74H27.7377H27.7357H27.7353C27.5649 49.5472 27.4689 49.4863 27.4107 49.4199C27.3452 49.3449 27.303 49.2328 27.3032 49.106C27.3035 48.9793 27.3461 48.8671 27.4119 48.7922C27.4703 48.7258 27.5659 48.6658 27.7342 48.6641H46.9286C48.1615 48.6641 49.1643 47.6613 49.1643 46.4284V25.0004C49.1643 23.7675 48.1615 22.7647 46.9286 22.7647H34.5748H34.3986L34.2693 22.8843C33.5564 23.5435 32.7739 24.1241 31.9289 24.6104L30.4692 25.4504H32.1533H42.4643C42.7093 25.4504 42.9072 25.6483 42.9072 25.8932C42.9072 27.6188 44.3102 29.0217 46.0357 29.0217C46.2807 29.0217 46.4786 29.2196 46.4786 29.4646V32.1431C46.4786 32.388 46.2807 32.5859 46.0357 32.5859C45.7907 32.5859 45.5929 32.388 45.5929 32.1431V30.2676V29.9L45.2327 29.8266C43.6631 29.5069 42.4219 28.2658 42.1022 26.6962L42.0288 26.3361H41.6613H9.33877H8.9712L8.89783 26.6962C8.57812 28.2658 7.33695 29.5069 5.76734 29.8266L5.40716 29.9V30.2676V41.1612V41.5288L5.76734 41.6021C7.33695 41.9218 8.57811 43.163 8.89783 44.7325L8.9712 45.0927H9.33877H41.6613H42.0288L42.1022 44.7325C42.4219 43.163 43.6631 41.9219 45.2327 41.6021L45.5929 41.5288V41.1612V36.6072C45.5929 36.3623 45.7907 36.1644 46.0357 36.1644C46.2807 36.1644 46.4786 36.3623 46.4786 36.6072V41.9642C46.4786 42.2092 46.2807 42.407 46.0357 42.407C44.3102 42.407 42.9072 43.81 42.9072 45.5355C42.9072 45.7805 42.7093 45.9784 42.4643 45.9784H8.53573C8.29073 45.9784 8.09287 45.7805 8.09287 45.5355C8.09287 43.81 6.68987 42.407 4.9643 42.407C4.71931 42.407 4.52144 42.2092 4.52144 41.9642V29.4646C4.52144 29.2196 4.71931 29.0217 4.9643 29.0217C6.68987 29.0217 8.09287 27.6188 8.09287 25.8932C8.09287 25.6483 8.29073 25.4504 8.53573 25.4504H18.825H20.541L19.0458 24.6083C18.2106 24.1379 17.4292 23.5463 16.7249 22.8864L16.5951 22.7647H16.4172V23.2147L16.4172 22.7647H16.417H16.4168H16.4164H16.416H16.4155H16.4148H16.4141H16.4133H16.4124H16.4113H16.4102H16.409H16.4077H16.4063H16.4049H16.4033H16.4016H16.3999H16.398H16.3961H16.394H16.3919H16.3897H16.3874H16.385H16.3825H16.38H16.3773H16.3746H16.3717H16.3688H16.3658H16.3627H16.3596H16.3563H16.353H16.3495H16.346H16.3424H16.3387H16.335H16.3311H16.3272H16.3232H16.3191H16.3149H16.3107H16.3063H16.3019H16.2974H16.2929H16.2882H16.2835H16.2787H16.2738H16.2689H16.2638H16.2587H16.2535H16.2483H16.2429H16.2375H16.232H16.2265H16.2208H16.2151H16.2093H16.2035H16.1976H16.1916H16.1855H16.1794H16.1731H16.1669H16.1605H16.1541H16.1476H16.1411H16.1344H16.1277H16.121H16.1141H16.1073H16.1003H16.0933H16.0862H16.079H16.0718H16.0645H16.0572H16.0497H16.0423H16.0347H16.0271H16.0195H16.0117H16.004H15.9961H15.9882H15.9802H15.9722H15.9641H15.956H15.9478H15.9395H15.9312H15.9228H15.9144H15.9059H15.8973H15.8887H15.8801H15.8714H15.8626H15.8538H15.8449H15.8359H15.827H15.8179H15.8088H15.7997H15.7905H15.7813H15.772H15.7626H15.7532H15.7438H15.7343H15.7247H15.7151H15.7055H15.6958H15.6861H15.6763H15.6665H15.6566H15.6467H15.6367H15.6267H15.6166H15.6065H15.5964H15.5862H15.576H15.5657H15.5554H15.545H15.5346H15.5242H15.5137H15.5032H15.4926H15.482H15.4714H15.4607H15.45H15.4392H15.4284H15.4176H15.4067H15.3958H15.3849H15.3739H15.3629H15.3518H15.3407H15.3296H15.3185H15.3073H15.2961H15.2848H15.2735H15.2622H15.2509H15.2395H15.2281H15.2166H15.2052H15.1937H15.1821H15.1706H15.159H15.1474H15.1357H15.1241H15.1124H15.1006H15.0889H15.0771H15.0653H15.0535H15.0416H15.0298H15.0179H15.0059H14.994H14.982H14.97H14.958H14.946H14.9339H14.9219H14.9098H14.8977H14.8855H14.8734H14.8612H14.849H14.8368H14.8246H14.8123H14.8001H14.7878H14.7755H14.7632H14.7508H14.7385H14.7261H14.7138H14.7014H14.689H14.6766H14.6642H14.6517H14.6393H14.6268H14.6143H14.6019H14.5894H14.5769H14.5644H14.5518H14.5393H14.5268H14.5142H14.5017H14.4891H14.4765H14.464H14.4514H14.4388H14.4262H14.4136H14.401H14.3884H14.3758H14.3632H14.3506H14.3379H14.3253H14.3127H14.3001H14.2874H14.2748H14.2622H14.2496H14.2369H14.2243H14.2117H14.1991H14.1864H14.1738H14.1612H14.1486H14.136H14.1234H14.1108H14.0982H14.0856H14.073H14.0604H14.0479H14.0353H14.0227H14.0102H13.9976H13.9851H13.9726H13.96H13.9475H13.935H13.9225H13.91H13.8976H13.8851H13.8727H13.8602H13.8478H13.8354H13.823H13.8106H13.7982H13.7859H13.7736H13.7612H13.7489H13.7366H13.7243H13.7121H13.6998H13.6876H13.6754H13.6632H13.651H13.6389H13.6267H13.6146H13.6025H13.5904H13.5784H13.5664H13.5543H13.5424H13.5304H13.5184H13.5065H13.4946H13.4827H13.4709H13.4591H13.4473H13.4355H13.4237H13.412H13.4003H13.3887H13.377H13.3654H13.3538H13.3423H13.3307H13.3192H13.3078H13.2963H13.2849H13.2735H13.2622H13.2509H13.2396H13.2283H13.2171H13.2059H13.1948H13.1837H13.1726H13.1615H13.1505H13.1395H13.1286H13.1177H13.1068H13.096H13.0852H13.0744H13.0637H13.053H13.0424H13.0318H13.0212H13.0107H13.0002H12.9898H12.9794H12.969H12.9587H12.9484H12.9382H12.928H12.9179H12.9078H12.8977H12.8877H12.8777H12.8678H12.8579H12.8481H12.8383H12.8286H12.8189H12.8093H12.7997H12.7901H12.7806H12.7712H12.7618H12.7524H12.7431H12.7339H12.7247H12.7156H12.7065H12.6974H12.6885H12.6795H12.6706H12.6618H12.6531H12.6443H12.6357H12.6271H12.6185H12.61H12.6016H12.5932H12.5849H12.5766H12.5684H12.5603H12.5522H12.5442H12.5362H12.5283H12.5204H12.5127H12.5049H12.4973H12.4897H12.4821H12.4747H12.4672H12.4599H12.4526H12.4454H12.4382H12.4311H12.4241H12.4172H12.4103H12.4034H12.3967H12.39H12.3834H12.3768H12.3703H12.3639H12.3575H12.3513H12.3451H12.3389H12.3328H12.3268H12.3209H12.3151H12.3093H12.3036H12.2979H12.2924H12.2869H12.2815H12.2761H12.2709H12.2657H12.2606H12.2556H12.2506H12.2457H12.2409H12.2362H12.2315H12.227H12.2225H12.2181H12.2137H12.2095H12.2053H12.2012H12.1972H12.1933H12.1894H12.1857H12.182H12.1784H12.1749H12.1715H12.1681H12.1649H12.1617H12.1586H12.1556H12.1527H12.1499H12.1471H12.1445H12.1419H12.1394H12.137H12.1347H12.1325H12.1304H12.1284H12.1264H12.1246H12.1228H12.1211H12.1196H12.1181H12.1167H12.1154H12.1142H12.1131H12.1121H12.1119C11.9378 22.7606 11.8406 22.6983 11.7828 22.6324C11.7178 22.5582 11.6766 22.448 11.6774 22.3234C11.6781 22.1986 11.7208 22.0866 11.7877 22.0107C11.8475 21.943 11.9444 21.8826 12.1113 21.8791H14.8032H15.706L15.1625 21.1582C15.1104 21.0891 15.0663 21.0333 15.0257 20.982C14.967 20.9078 14.916 20.8433 14.8599 20.7626L14.8599 20.7625L14.8568 20.7581C8.89385 12.3959 15.2188 0.321903 25.4944 0.45103V0.451065H25.5C28.1436 0.451065 30.6911 1.24705 32.8682 2.75319C33.069 2.89241 33.1192 3.16795 32.9804 3.36892C32.8399 3.57021 32.564 3.61973 32.3632 3.48117L32.3633 3.48114L32.3582 3.47774C21.2514 -3.96847 8.1424 9.15723 15.5838 20.2514L15.5838 20.2514L15.5882 20.2577C22.2932 29.8954 37.5176 25.1576 37.5572 13.3951V13.3936C37.5572 10.9312 36.8151 8.5575 35.4125 6.53022L35.4124 6.53006C35.2732 6.329 35.3233 6.05304 35.5244 5.91374L35.5246 5.91363C35.7261 5.774 36.0011 5.8242 36.1406 6.02572L36.1405 6.02578L36.1462 6.03361C39.3247 10.4213 39.1265 16.9929 35.8362 21.1498ZM12.1072 23.2134L12.1072 23.2147V22.7647L12.1072 23.2134Z" stroke="#343434" stroke-width="0.9"/>
<path d="M31.2574 10.1938L31.2554 10.2148V10.2358C31.2554 10.5945 31.1169 10.9289 30.8641 11.1818C30.8641 11.1818 30.8641 11.1818 30.864 11.1818L28.9694 13.0755L28.651 13.3938L28.9694 13.7121L30.864 15.6058C31.1169 15.8587 31.2554 16.1931 31.2554 16.5519L31.2554 16.5723L31.2572 16.5927C31.2837 16.8825 31.1049 17.2238 30.7263 17.6413C30.5466 17.8394 30.3452 18.0303 30.1426 18.2211C30.1334 18.2297 30.1242 18.2383 30.115 18.247C29.9306 18.4205 29.739 18.6008 29.5881 18.7707C29.1015 19.2726 28.204 19.2709 27.7185 18.7646L27.7186 18.7645L27.712 18.7579L25.8181 16.8633L25.4999 16.5449L25.1816 16.8633L25.4999 17.1814L25.1816 16.8633L25.1815 16.8633L25.1813 16.8636L25.1802 16.8646L25.1762 16.8687L25.1603 16.8845L25.1002 16.9447L24.8857 17.1593L24.2347 17.8106L24.056 17.9893V17.9567L23.2813 18.7645C22.7934 19.2732 21.8921 19.2727 21.4051 18.764L21.4052 18.7639L21.3983 18.757L21.0801 19.0752L21.3982 18.757L21.3982 18.7569L21.398 18.7567L21.3973 18.7561L21.3946 18.7534L21.3841 18.7428L21.344 18.7027L21.201 18.5597L20.9039 18.2627H20.9399L20.1284 17.4873C19.621 17.0024 19.6211 16.0994 20.129 15.6124L20.129 15.6125L20.1356 15.6059L22.0303 13.7121L22.3488 13.3938L22.0303 13.0756L21.7122 13.3938L22.0303 13.0755L22.0302 13.0755L22.03 13.0752L22.029 13.0742L22.0249 13.0701L22.0091 13.0543L21.9489 12.9942L21.7343 12.7797L21.083 12.1287L20.9043 11.9501H20.9367L20.129 11.1753C19.6207 10.6877 19.6209 9.78584 20.1294 9.29932L20.1295 9.2994L20.1366 9.29235L19.8184 8.97415L20.1366 9.29233L20.1366 9.29229L20.1368 9.29212L20.1375 9.29143L20.1402 9.28873L20.1507 9.27817L20.1908 9.2381L20.3338 9.09508L20.6309 8.798V8.83332L21.4062 8.02265C21.8915 7.51508 22.794 7.51487 23.2812 8.02306L23.2811 8.02313L23.2878 8.02976L25.1816 9.92441L25.4999 10.2428L25.8181 9.92441L25.4999 9.60628L25.8182 9.92439L25.8182 9.92432L25.8185 9.92406L25.8195 9.92304L25.8236 9.91897L25.8394 9.90313L25.8995 9.843L26.114 9.62837L26.765 8.97709L26.9437 8.79836V8.83092L27.7185 8.02314C28.2045 7.51636 29.1009 7.51497 29.5892 8.01805C29.7386 8.18588 29.9286 8.36476 30.112 8.53729C30.1222 8.54692 30.1324 8.55652 30.1426 8.5661C30.3451 8.75677 30.5467 8.94803 30.7265 9.14653C31.1061 9.56548 31.2842 9.90691 31.2574 10.1938ZM27.7053 13.0873L27.7053 13.0873L27.7118 13.0808L30.2378 10.5558L30.5561 10.2376L30.2379 9.91934L28.9744 8.65594L28.6562 8.3377L28.338 8.656L25.8129 11.1819C25.8129 11.1819 25.8129 11.1819 25.8129 11.1819C25.8129 11.1819 25.8129 11.1819 25.8129 11.1819C25.6538 11.3409 25.3459 11.3409 25.1868 11.1819C25.1868 11.1819 25.1868 11.1819 25.1868 11.1819L22.6617 8.656L22.3435 8.3377L22.0253 8.65594L20.7619 9.91934L20.4436 10.2376L20.7619 10.5558L21.0801 10.2375L20.7619 10.5558L20.762 10.5559L20.7624 10.5563L20.7637 10.5576L20.7692 10.563L20.7903 10.5842L20.8704 10.6643L21.1566 10.9503L22.0249 11.8183L22.5194 12.3126H22.4876L23.2944 13.0872C23.4559 13.2422 23.4558 13.5456 23.2945 13.7004L23.2944 13.7004L23.2879 13.7069L20.7619 16.2319L20.4436 16.5501L20.7619 16.8684L22.0253 18.1317L22.3435 18.45L22.6617 18.1317L25.1868 15.6058C25.1868 15.6058 25.1868 15.6058 25.1868 15.6058C25.27 15.5226 25.3823 15.4761 25.4999 15.4761C25.6174 15.4761 25.7297 15.5226 25.8129 15.6058C25.8129 15.6058 25.8129 15.6058 25.8129 15.6058L28.338 18.1317L28.6562 18.45L28.9744 18.1317L30.2379 16.8684L30.5561 16.5501L30.2378 16.2319L29.9197 16.5501L30.2378 16.2319L30.2377 16.2318L30.2374 16.2314L30.236 16.2301L30.2306 16.2246L30.2094 16.2035L30.1293 16.1234L29.8431 15.8374L28.9748 14.9694L28.4804 14.4751H28.5121L27.7054 13.7005C27.5439 13.5454 27.5439 13.2421 27.7053 13.0873Z" stroke="#343434" stroke-width="0.9"/>
</g>
</svg>
