<svg width="54" height="51" viewBox="0 0 54 51" fill="none" xmlns="http://www.w3.org/2000/svg">
<path d="M28.7031 49.9402C28.079 49.9402 27.4554 49.7164 26.9805 49.2692C26.9428 49.2337 26.9128 49.1916 26.8924 49.1451C26.872 49.0987 26.8615 49.049 26.8615 48.9988C26.8615 48.9485 26.872 48.8988 26.8924 48.8524C26.9128 48.8059 26.9428 48.7638 26.9805 48.7283C27.0182 48.6927 27.0629 48.6646 27.1122 48.6453C27.1614 48.6261 27.2142 48.6162 27.2675 48.6162C27.3209 48.6162 27.3737 48.6261 27.4229 48.6453C27.4722 48.6646 27.5169 48.6927 27.5546 48.7283C28.1889 49.3252 29.2197 49.3244 29.8525 48.7275C30.4849 48.1309 30.4845 47.1602 29.8508 46.5637C29.8131 46.5282 29.7832 46.486 29.7628 46.4396C29.7424 46.3932 29.7318 46.3435 29.7318 46.2932C29.7318 46.243 29.7424 46.1933 29.7628 46.1468C29.7832 46.1004 29.8131 46.0583 29.8508 46.0228C29.8885 45.9872 29.9332 45.959 29.9825 45.9398C30.0317 45.9205 30.0845 45.9106 30.1379 45.9106C30.1912 45.9106 30.244 45.9205 30.2932 45.9398C30.3424 45.959 30.3872 45.9872 30.4249 46.0228C31.3748 46.9171 31.3755 48.373 30.4265 49.2685C29.9515 49.716 29.327 49.9402 28.7031 49.9402ZM32.7234 46.1541C32.072 46.1541 31.4599 45.915 30.9996 45.4809C30.9619 45.4454 30.932 45.4032 30.9115 45.3568C30.8911 45.3104 30.8806 45.2607 30.8806 45.2104C30.8806 45.1602 30.8911 45.1104 30.9115 45.064C30.932 45.0176 30.9619 44.9755 30.9996 44.94C31.0373 44.9044 31.082 44.8762 31.1313 44.857C31.1805 44.8377 31.2333 44.8278 31.2866 44.8278C31.3399 44.8278 31.3927 44.8377 31.442 44.857C31.4912 44.8762 31.536 44.9044 31.5736 44.94C32.1866 45.5179 33.2565 45.5195 33.8699 44.9415C34.503 44.3449 34.5026 43.3738 33.8691 42.7769L30.7117 39.8001C30.674 39.7645 30.6441 39.7224 30.6237 39.676C30.6033 39.6296 30.5928 39.5798 30.5928 39.5296C30.5928 39.4794 30.6033 39.4296 30.6237 39.3832C30.6441 39.3368 30.674 39.2946 30.7117 39.2591C30.7494 39.2236 30.7941 39.1954 30.8434 39.1762C30.8926 39.157 30.9454 39.1471 30.9987 39.1471C31.052 39.1471 31.1048 39.157 31.154 39.1762C31.2033 39.1954 31.248 39.2236 31.2857 39.2591L34.4431 42.236C35.3934 43.1311 35.3934 44.5878 34.4439 45.4825C33.9849 45.9154 33.3737 46.1541 32.7234 46.1541ZM36.7407 42.3662C36.1166 42.3662 35.4931 42.1425 35.0181 41.6948L31.8608 38.7194C31.8231 38.6839 31.7932 38.6418 31.7728 38.5954C31.7524 38.5489 31.7419 38.4992 31.7419 38.449C31.7419 38.3987 31.7524 38.349 31.7728 38.3026C31.7932 38.2562 31.8231 38.214 31.8608 38.1785C31.8984 38.143 31.9432 38.1148 31.9924 38.0956C32.0417 38.0764 32.0945 38.0665 32.1478 38.0665C32.2011 38.0665 32.2539 38.0764 32.3031 38.0956C32.3523 38.1148 32.3971 38.143 32.4348 38.1785L35.5922 41.1539C36.2257 41.7508 37.2558 41.7508 37.8892 41.1539C38.5227 40.5569 38.5227 39.5855 37.8892 38.9885L34.731 36.0139C34.5724 35.8645 34.5724 35.6224 34.731 35.473C34.8897 35.3236 35.1466 35.3235 35.305 35.473L38.4632 38.4475C39.4136 39.3428 39.4136 40.7998 38.4632 41.6949C37.9884 42.1425 37.3648 42.3662 36.7407 42.3662ZM40.76 38.5788C40.1364 38.5788 39.5129 38.3553 39.0378 37.9084L35.8792 34.9313C35.8415 34.8958 35.8116 34.8536 35.7912 34.8072C35.7708 34.7608 35.7603 34.7111 35.7603 34.6608C35.7603 34.6106 35.7708 34.5609 35.7912 34.5145C35.8116 34.4681 35.8415 34.4259 35.8792 34.3904C35.9169 34.3548 35.9616 34.3266 36.0108 34.3074C36.0601 34.2881 36.1129 34.2782 36.1662 34.2782C36.2195 34.2782 36.2723 34.2881 36.3215 34.3074C36.3708 34.3266 36.4155 34.3548 36.4532 34.3904L39.6114 37.3672C40.2449 37.9628 41.275 37.9635 41.9077 37.3672C42.5412 36.7702 42.5412 35.7989 41.9077 35.2019L31.2867 25.1938C31.249 25.1583 31.2191 25.1161 31.1987 25.0697C31.1782 25.0233 31.1677 24.9736 31.1677 24.9233C31.1677 24.8731 31.1782 24.8233 31.1987 24.7769C31.2191 24.7305 31.249 24.6884 31.2867 24.6529C31.3244 24.6173 31.3691 24.5891 31.4184 24.5699C31.4676 24.5506 31.5204 24.5407 31.5737 24.5407C31.6271 24.5407 31.6798 24.5506 31.7291 24.5699C31.7783 24.5891 31.8231 24.6173 31.8608 24.6529L42.4819 34.6607C43.4321 35.556 43.4321 37.0129 42.4819 37.908C42.0078 38.3553 41.3841 38.5788 40.76 38.5788ZM10.9305 32.8563C10.8556 32.8564 10.7821 32.8369 10.7183 32.8C10.6544 32.7631 10.6026 32.7103 10.5686 32.6474C8.81033 29.3975 8.23183 26.2025 8.20806 26.068C8.19044 25.968 8.21565 25.8654 8.27817 25.7829C8.34068 25.7004 8.43539 25.6447 8.54149 25.6279C8.76473 25.5965 8.97161 25.7343 9.00888 25.9421C9.01447 25.9743 9.59287 29.1595 11.2917 32.3001C11.3233 32.3583 11.3385 32.4233 11.3359 32.4887C11.3332 32.5541 11.3128 32.6177 11.2765 32.6735C11.2403 32.7294 11.1894 32.7755 11.1289 32.8075C11.0683 32.8395 11 32.8563 10.9305 32.8563ZM23.0872 19.2342C23.0334 19.2342 22.9802 19.2242 22.9306 19.2046C20.1118 18.0924 18.1996 17.1558 18.1806 17.1464C18.0852 17.0994 18.0135 17.0186 17.9812 16.9218C17.949 16.825 17.9588 16.7201 18.0085 16.6301C18.0331 16.5855 18.0668 16.5458 18.1077 16.5135C18.1485 16.4811 18.1958 16.4567 18.2467 16.4417C18.2977 16.4266 18.3512 16.4212 18.4044 16.4257C18.4575 16.4302 18.5092 16.4446 18.5565 16.468C18.5752 16.4774 20.459 17.4002 23.2438 18.4985C23.3302 18.5327 23.4013 18.5941 23.4452 18.6721C23.4891 18.7501 23.503 18.8401 23.4846 18.9266C23.4661 19.0132 23.4165 19.0911 23.3441 19.1472C23.2717 19.2032 23.1809 19.234 23.0872 19.2342ZM42.3832 33.3255C42.3086 33.3256 42.2355 33.3062 42.1718 33.2696C42.1081 33.233 42.0564 33.1806 42.0222 33.1181C41.9881 33.0556 41.9729 32.9854 41.9783 32.9153C41.9838 32.8452 42.0096 32.7779 42.053 32.7207C44.4764 29.5186 44.9435 24.9346 44.9479 24.8887C44.9685 24.6787 45.16 24.5211 45.3892 24.5423C45.4964 24.5516 45.5953 24.6006 45.6642 24.6786C45.7331 24.7565 45.7664 24.8571 45.7566 24.9582C45.7375 25.1539 45.2639 29.7963 42.7143 33.1653C42.6767 33.215 42.627 33.2554 42.5694 33.2833C42.5118 33.3111 42.448 33.3256 42.3832 33.3255ZM25.2582 48.8589H25.2578C24.6076 48.8589 23.9959 48.6199 23.536 48.1866C22.5869 47.2925 22.5869 45.8361 23.5356 44.9403L25.2582 43.3171C26.1796 42.4497 27.7836 42.4504 28.7027 43.3178C29.6522 44.2126 29.6522 45.6689 28.7027 46.5637L26.9812 48.1858C26.5205 48.6199 25.9087 48.8589 25.2582 48.8589ZM26.9808 43.4104C26.7674 43.4099 26.5559 43.4492 26.3587 43.5261C26.1615 43.603 25.9824 43.7159 25.8318 43.8584L24.11 45.4809C23.4777 46.0783 23.4773 47.0493 24.11 47.6456C24.2604 47.7881 24.4392 47.9011 24.6362 47.9781C24.8333 48.055 25.0445 48.0944 25.2578 48.0938H25.2582C25.692 48.0938 26.0999 47.9344 26.4071 47.6449L28.1285 46.0228C28.7616 45.4261 28.7616 44.4554 28.1285 43.8589C27.9783 43.7162 27.7994 43.6031 27.6024 43.5261C27.4054 43.4491 27.1941 43.4098 26.9808 43.4104ZM21.2388 45.0718C20.5886 45.0718 19.9773 44.8331 19.5175 44.3998C18.5684 43.5044 18.5684 42.048 19.5175 41.1525L21.8138 38.9886C22.7343 38.1222 24.3401 38.1215 25.2582 38.9886C26.2081 39.8838 26.2081 41.3401 25.2582 42.2352L22.9619 44.399C22.5016 44.8328 21.8895 45.0718 21.2388 45.0718ZM23.5367 39.082C23.3233 39.0813 23.1119 39.1205 22.9147 39.1974C22.7175 39.2742 22.5384 39.3871 22.3878 39.5295L20.0915 41.6934C19.4588 42.2903 19.4588 43.2618 20.0915 43.8588C20.2418 44.0012 20.4206 44.1142 20.6175 44.1911C20.8145 44.268 21.0257 44.3073 21.2388 44.3068C21.4523 44.3072 21.6638 44.2678 21.861 44.1908C22.0582 44.1138 22.2372 44.0007 22.3878 43.8581L24.684 41.6943C25.3172 41.0976 25.3172 40.1262 24.684 39.5296C24.5338 39.3871 24.355 39.2742 24.158 39.1973C23.9611 39.1205 23.7499 39.0813 23.5367 39.082ZM17.2203 41.2839C16.5693 41.2839 15.958 41.0456 15.4988 40.612C15.0385 40.1792 14.7848 39.6026 14.7844 38.9895C14.7834 38.6879 14.8459 38.389 14.9682 38.1102C15.0906 37.8314 15.2704 37.5783 15.4973 37.3655L17.2203 35.7426C18.1405 34.8747 19.7462 34.8754 20.6655 35.7434C21.1258 36.1761 21.3792 36.7521 21.3792 37.3655C21.3792 37.9782 21.1258 38.5547 20.6655 38.9884L18.9425 40.612C18.4822 41.0456 17.8705 41.2839 17.2203 41.2839ZM18.9426 35.8354C18.7293 35.8349 18.5179 35.8742 18.3209 35.9512C18.1238 36.0281 17.9448 36.1411 17.7944 36.2837L16.0714 37.9066C15.9202 38.0485 15.8004 38.2173 15.7189 38.4031C15.6374 38.5889 15.5958 38.7882 15.5965 38.9892C15.5962 39.1903 15.6381 39.3894 15.7199 39.5751C15.8017 39.7609 15.9217 39.9294 16.0731 40.0712C16.6852 40.6488 17.7548 40.6488 18.3686 40.0712L20.0916 38.4475C20.2429 38.3058 20.3628 38.1372 20.4445 37.9515C20.5262 37.7658 20.5679 37.5666 20.5674 37.3656C20.5674 36.9569 20.3985 36.5732 20.092 36.2848C19.9415 36.1419 19.7624 36.0286 19.5651 35.9515C19.3678 35.8744 19.1562 35.8349 18.9426 35.8354ZM13.2015 37.4972H13.2011C12.5505 37.4972 11.9392 37.2588 11.4797 36.8253C10.5301 35.9299 10.5301 34.4736 11.4797 33.5788L12.6279 32.4968C13.548 31.6293 15.1513 31.6308 16.0714 32.4976C16.5317 32.9312 16.7851 33.5074 16.7855 34.1201C16.7859 34.7328 16.5325 35.309 16.0723 35.7426L14.9241 36.8246C14.4637 37.2584 13.852 37.4972 13.2015 37.4972ZM14.3488 32.5899C14.1357 32.5895 13.9246 32.6288 13.7278 32.7057C13.5309 32.7826 13.3521 32.8955 13.2019 33.0379L12.0537 34.1199C11.421 34.7165 11.421 35.6875 12.0537 36.2845C12.2041 36.4269 12.3829 36.5398 12.5798 36.6166C12.7768 36.6935 12.9879 36.7327 13.2011 36.7321H13.2015C13.6353 36.7321 14.0431 36.5729 14.3501 36.2837L15.4982 35.2018C15.805 34.9126 15.9736 34.5286 15.9736 34.1202C15.9736 33.7118 15.8043 33.3278 15.4975 33.0386C15.1901 32.7495 14.7825 32.5899 14.3488 32.5899ZM21.8145 27.2172C21.1904 27.2172 20.5664 26.9931 20.0915 26.5454C19.142 25.6507 19.142 24.1952 20.0915 23.3004L23.823 19.7827C27.3229 16.4845 35.2022 15.3918 35.5355 15.3466C35.7552 15.3133 35.963 15.4616 35.9951 15.6712C36.0103 15.7717 35.9825 15.8738 35.9179 15.955C35.8533 16.0362 35.7571 16.0898 35.6505 16.1042C35.5711 16.1146 27.705 17.2063 24.3969 20.3236L20.6655 23.8414C20.0328 24.4376 20.0328 25.4083 20.6655 26.0045C21.2987 26.6015 22.3286 26.6015 22.9618 26.0053C23.1728 25.8065 28.1582 21.1657 30.7126 23.5702C30.7503 23.6057 30.7802 23.6479 30.8006 23.6943C30.821 23.7407 30.8315 23.7905 30.8315 23.8407C30.8315 23.8909 30.821 23.9407 30.8006 23.9871C30.7802 24.0335 30.7503 24.0756 30.7126 24.1112C30.6749 24.1467 30.6302 24.1749 30.5809 24.1941C30.5317 24.2134 30.4789 24.2233 30.4256 24.2233C30.3723 24.2233 30.3195 24.2134 30.2702 24.1941C30.221 24.1749 30.1762 24.1467 30.1386 24.1112C28.4916 22.5615 24.814 25.3425 23.5359 26.5462C23.0614 26.9934 22.4378 27.2172 21.8145 27.2172ZM47.0753 24.7649C47.022 24.765 46.9692 24.7551 46.9199 24.7359C46.8707 24.7167 46.8259 24.6884 46.7883 24.6529L35.8801 14.373C35.8424 14.3375 35.8125 14.2953 35.7921 14.2489C35.7717 14.2025 35.7612 14.1527 35.7612 14.1025C35.7612 14.0523 35.7717 14.0025 35.7921 13.9561C35.8125 13.9097 35.8424 13.8676 35.8801 13.832C35.9178 13.7965 35.9625 13.7683 36.0118 13.7491C36.061 13.7298 36.1138 13.7199 36.1671 13.7199C36.2204 13.7199 36.2732 13.7298 36.3225 13.7491C36.3717 13.7683 36.4164 13.7965 36.4541 13.832L47.3623 24.1119C47.4192 24.1654 47.4579 24.2336 47.4735 24.3078C47.4892 24.382 47.4812 24.4589 47.4505 24.5288C47.4197 24.5987 47.3677 24.6585 47.3009 24.7005C47.2341 24.7425 47.1556 24.765 47.0753 24.7649ZM51.0946 23.1413C51.0412 23.1414 50.9884 23.1315 50.9392 23.1123C50.8899 23.093 50.8452 23.0648 50.8075 23.0292L37.6023 10.5862C37.5646 10.5507 37.5347 10.5085 37.5143 10.4621C37.4939 10.4157 37.4834 10.3659 37.4834 10.3157C37.4834 10.2655 37.4939 10.2157 37.5143 10.1693C37.5347 10.1229 37.5646 10.0808 37.6023 10.0452C37.64 10.0097 37.6847 9.98149 37.734 9.96225C37.7832 9.94301 37.836 9.93311 37.8893 9.93311C37.9426 9.93311 37.9954 9.94301 38.0447 9.96225C38.0939 9.98149 38.1386 10.0097 38.1763 10.0452L51.3816 22.4883C51.4384 22.5418 51.4771 22.6099 51.4928 22.6841C51.5085 22.7583 51.5004 22.8353 51.4697 22.9052C51.439 22.9751 51.3869 23.0348 51.3201 23.0769C51.2534 23.1189 51.1749 23.1413 51.0946 23.1413Z" stroke="#343434" stroke-width="0.7"/>
<path d="M36.1672 14.4846C36.0869 14.4846 36.0084 14.4622 35.9416 14.4202C35.8748 14.3781 35.8228 14.3184 35.7921 14.2485C35.7613 14.1786 35.7533 14.1016 35.769 14.0274C35.7847 13.9532 35.8234 13.885 35.8802 13.8316L37.6024 12.2086C37.6401 12.1731 37.6848 12.1449 37.7341 12.1257C37.7833 12.1064 37.8361 12.0965 37.8894 12.0965C37.9427 12.0965 37.9955 12.1064 38.0447 12.1257C38.094 12.1449 38.1387 12.1731 38.1764 12.2086C38.2141 12.2441 38.244 12.2863 38.2644 12.3327C38.2848 12.3791 38.2953 12.4288 38.2953 12.479C38.2953 12.5293 38.2848 12.579 38.2644 12.6254C38.244 12.6718 38.2141 12.714 38.1764 12.7495L36.4542 14.3725C36.4166 14.4081 36.3718 14.4363 36.3226 14.4555C36.2733 14.4748 36.2205 14.4846 36.1672 14.4846ZM47.0754 24.7644C47.0221 24.7645 46.9693 24.7547 46.92 24.7354C46.8708 24.7162 46.826 24.688 46.7884 24.6524C46.7507 24.6169 46.7208 24.5747 46.7003 24.5283C46.6799 24.4819 46.6694 24.4321 46.6694 24.3819C46.6694 24.3317 46.6799 24.2819 46.7003 24.2355C46.7208 24.1891 46.7507 24.1469 46.7884 24.1114L48.5106 22.4885C48.5483 22.4529 48.5931 22.4248 48.6423 22.4056C48.6916 22.3863 48.7444 22.3764 48.7977 22.3764C48.851 22.3764 48.9038 22.3863 48.953 22.4056C49.0022 22.4248 49.047 22.453 49.0847 22.4885C49.1224 22.524 49.1523 22.5662 49.1727 22.6126C49.1931 22.659 49.2036 22.7088 49.2036 22.759C49.2036 22.8092 49.193 22.859 49.1726 22.9054C49.1522 22.9518 49.1223 22.994 49.0846 23.0295L47.3624 24.6524C47.3248 24.688 47.2801 24.7162 47.2308 24.7354C47.1815 24.7546 47.1287 24.7645 47.0754 24.7644ZM37.8894 10.6978C37.8091 10.6978 37.7306 10.6754 37.6638 10.6334C37.597 10.5913 37.545 10.5316 37.5143 10.4617C37.4835 10.3918 37.4755 10.3148 37.4912 10.2406C37.5069 10.1664 37.5456 10.0982 37.6024 10.0448L47.0818 1.11203C47.1195 1.07651 47.1643 1.04834 47.2135 1.02912C47.2628 1.00989 47.3155 1 47.3688 1C47.4221 1 47.4749 1.00989 47.5242 1.02912C47.5734 1.04834 47.6182 1.07651 47.6559 1.11203C47.6935 1.14755 47.7234 1.18971 47.7438 1.23612C47.7642 1.28253 47.7747 1.33227 47.7747 1.3825C47.7747 1.43273 47.7642 1.48246 47.7438 1.52887C47.7234 1.57528 47.6935 1.61744 47.6559 1.65296L38.1764 10.5857C38.1388 10.6213 38.094 10.6495 38.0448 10.6687C37.9955 10.688 37.9427 10.6978 37.8894 10.6978ZM51.0947 23.1408C51.0413 23.1409 50.9885 23.131 50.9393 23.1118C50.89 23.0925 50.8453 23.0643 50.8076 23.0287C50.7699 22.9932 50.74 22.9511 50.7196 22.9047C50.6992 22.8582 50.6887 22.8085 50.6887 22.7583C50.6887 22.708 50.6992 22.6583 50.7196 22.6119C50.74 22.5655 50.7699 22.5233 50.8076 22.4878L52.3071 21.0763C52.3448 21.0408 52.3896 21.0126 52.4388 20.9934C52.488 20.9742 52.5408 20.9643 52.5941 20.9643C52.6474 20.9643 52.7002 20.9742 52.7495 20.9934C52.7987 21.0126 52.8435 21.0408 52.8811 21.0763C52.9188 21.1118 52.9487 21.154 52.9691 21.2004C52.9895 21.2468 53 21.2966 53 21.3468C53 21.397 52.9895 21.4468 52.9691 21.4932C52.9487 21.5396 52.9188 21.5817 52.8811 21.6172L51.3817 23.0287C51.344 23.0643 51.2993 23.0925 51.25 23.1118C51.2008 23.131 51.148 23.1409 51.0947 23.1408ZM6.88639 25.8449C6.80608 25.8449 6.72756 25.8225 6.66077 25.7805C6.59397 25.7385 6.54191 25.6787 6.51117 25.6088C6.48043 25.5389 6.47239 25.462 6.48808 25.3877C6.50376 25.3135 6.54246 25.2454 6.59927 25.1919L17.5082 14.9134C17.6668 14.7639 17.9237 14.7639 18.0822 14.9134C18.2408 15.0629 18.2409 15.305 18.0822 15.4544L7.17341 25.7328C7.13574 25.7684 7.091 25.7966 7.04175 25.8158C6.9925 25.835 6.9397 25.8449 6.88639 25.8449ZM2.86786 24.2228C2.81455 24.2228 2.76174 24.2129 2.71248 24.1937C2.66323 24.1745 2.61849 24.1463 2.58085 24.1107C2.54312 24.0752 2.5132 24.033 2.49278 23.9866C2.47236 23.9402 2.46185 23.8905 2.46185 23.8402C2.46185 23.79 2.47236 23.7402 2.49278 23.6938C2.5132 23.6474 2.54312 23.6053 2.58085 23.5697L15.7861 11.1267C15.8238 11.0912 15.8685 11.063 15.9178 11.0437C15.967 11.0245 16.0198 11.0146 16.0731 11.0146C16.1264 11.0146 16.1792 11.0245 16.2285 11.0437C16.2777 11.063 16.3225 11.0912 16.3602 11.1267C16.3979 11.1622 16.4278 11.2044 16.4482 11.2508C16.4686 11.2972 16.4791 11.3469 16.4791 11.3972C16.4791 11.4474 16.4686 11.4972 16.4482 11.5436C16.4278 11.59 16.3979 11.6321 16.3602 11.6676L3.15488 24.1107C3.11723 24.1463 3.0725 24.1745 3.02324 24.1937C2.97398 24.2129 2.92118 24.2228 2.86786 24.2228Z" stroke="#343434" stroke-width="0.7"/>
<path d="M6.88637 25.8449C6.83305 25.8449 6.78023 25.835 6.73096 25.8158C6.68169 25.7966 6.63694 25.7684 6.59926 25.7328L4.87706 24.1107C4.71842 23.9612 4.71842 23.7192 4.87706 23.5698C5.0357 23.4204 5.29255 23.4203 5.45109 23.5698L7.17339 25.1919C7.2302 25.2454 7.2689 25.3135 7.28458 25.3877C7.30027 25.4619 7.29224 25.5389 7.26151 25.6088C7.23078 25.6787 7.17874 25.7385 7.11196 25.7805C7.04518 25.8225 6.96668 25.8449 6.88637 25.8449ZM17.7953 15.5664C17.742 15.5665 17.6892 15.5566 17.6399 15.5374C17.5907 15.5182 17.5459 15.4899 17.5083 15.4544L15.786 13.8315C15.7483 13.796 15.7183 13.7538 15.6979 13.7074C15.6775 13.661 15.667 13.6113 15.667 13.561C15.667 13.5108 15.6775 13.461 15.6979 13.4146C15.7183 13.3682 15.7483 13.326 15.786 13.2905C15.8237 13.255 15.8684 13.2268 15.9177 13.2076C15.9669 13.1883 16.0197 13.1784 16.073 13.1784C16.1263 13.1784 16.1791 13.1883 16.2284 13.2076C16.2776 13.2268 16.3223 13.255 16.36 13.2905L18.0823 14.9134C18.12 14.9489 18.15 14.9911 18.1704 15.0375C18.1908 15.0839 18.2013 15.1337 18.2013 15.1839C18.2013 15.2341 18.1908 15.2839 18.1704 15.3303C18.15 15.3767 18.12 15.4189 18.0823 15.4544C18.0447 15.4899 17.9999 15.5182 17.9507 15.5374C17.9014 15.5566 17.8486 15.5665 17.7953 15.5664ZM2.86785 24.2228C2.81453 24.2228 2.76173 24.213 2.71247 24.1937C2.66321 24.1745 2.61848 24.1463 2.58084 24.1107L1.1488 22.7612C1.07346 22.6893 1.03135 22.5923 1.03168 22.4913C1.03201 22.3902 1.07474 22.2934 1.15055 22.222C1.22636 22.1505 1.32909 22.1102 1.43631 22.1099C1.54353 22.1096 1.64654 22.1492 1.72284 22.2202L3.15487 23.5697C3.19259 23.6052 3.22252 23.6473 3.24293 23.6937C3.26335 23.7401 3.27386 23.7899 3.27386 23.8401C3.27386 23.8904 3.26335 23.9401 3.24293 23.9865C3.22252 24.0329 3.19259 24.0751 3.15487 24.1106C3.11724 24.1462 3.07251 24.1744 3.02325 24.1937C2.97399 24.2129 2.92118 24.2228 2.86785 24.2228ZM16.073 11.7797C16.0197 11.7798 15.9669 11.7699 15.9176 11.7507C15.8684 11.7314 15.8237 11.7032 15.786 11.6677L5.16174 1.65594C5.0031 1.50645 5.0031 1.26441 5.16174 1.11501C5.32038 0.965616 5.57723 0.965521 5.73577 1.11501L16.36 11.1266C16.3977 11.1621 16.4277 11.2043 16.4481 11.2507C16.4685 11.2971 16.479 11.3469 16.479 11.3971C16.479 11.4473 16.4685 11.4971 16.4481 11.5435C16.4277 11.5899 16.3977 11.6321 16.36 11.6676C16.3224 11.7032 16.2777 11.7314 16.2284 11.7507C16.1791 11.7699 16.1263 11.7798 16.073 11.7797ZM2.21684 20.8656C2.05671 20.866 1.89808 20.8365 1.75012 20.7788C1.60217 20.7211 1.46783 20.6363 1.35487 20.5294C0.881086 20.0807 0.881898 19.353 1.35569 18.9065C1.81404 18.4731 2.61923 18.4727 3.07829 18.9069C3.19161 19.0131 3.28143 19.1394 3.34254 19.2786C3.40364 19.4178 3.43482 19.567 3.43427 19.7176C3.43487 19.8684 3.40367 20.0178 3.34249 20.1572C3.28131 20.2965 3.19137 20.423 3.07788 20.5294C2.96515 20.6364 2.83098 20.7212 2.68317 20.7789C2.53535 20.8366 2.37684 20.8661 2.21684 20.8656ZM2.21684 19.3353C2.10816 19.3353 2.0063 19.375 1.93023 19.447C1.85406 19.519 1.81125 19.6164 1.81118 19.718C1.8111 19.8196 1.85376 19.9171 1.92982 19.9891C2.08125 20.1314 2.35049 20.1326 2.50345 19.9887C2.5413 19.9532 2.57131 19.911 2.59173 19.8645C2.61214 19.818 2.62256 19.7682 2.62237 19.7179C2.62237 19.6155 2.58033 19.5195 2.50385 19.4474C2.4663 19.4117 2.42158 19.3834 2.3723 19.3642C2.32303 19.3449 2.27018 19.3351 2.21684 19.3353Z" stroke="#343434" stroke-width="0.7"/>
</svg>
