<svg width="51" height="46" viewBox="0 0 51 46" fill="none" xmlns="http://www.w3.org/2000/svg">
<path d="M26.6234 21.4041V21.7537L26.9698 21.8005C28.6651 22.0298 29.9693 22.6649 30.8487 23.6144C31.7258 24.5613 32.2135 25.8564 32.2135 27.4715C32.2135 29.0866 31.7258 30.3817 30.8487 31.3286C29.9693 32.2781 28.6651 32.9132 26.9698 33.1425L26.6234 33.1893V33.5388V35.4528H24.3765V33.5388V33.1893L24.0301 33.1425C22.3348 32.9132 21.0306 32.2781 20.1512 31.3286C19.3477 30.4611 18.871 29.3015 18.7967 27.8715H21.0449C21.07 28.2131 21.1499 28.6655 21.4038 29.1118C21.7905 29.7914 22.5387 30.3901 23.9028 30.6459L24.3765 30.7347V30.2527V24.4642V24.1147L24.0301 24.0678C22.3348 23.8386 21.0306 23.2035 20.1512 22.254C19.2741 21.3071 18.7864 20.0121 18.7864 18.3969C18.7864 16.7818 19.2741 15.4868 20.1512 14.5398C21.0307 13.5903 22.3348 12.9552 24.0301 12.726L24.3765 12.6791V12.3296V10.4156H26.6234V12.3296V12.6791L26.9698 12.726C28.6651 12.9552 29.9693 13.5904 30.8487 14.5399C31.6522 15.4073 32.1289 16.5669 32.2033 17.9969H29.9551C29.9299 17.6553 29.85 17.2029 29.5962 16.7567C29.2095 16.077 28.4612 15.4783 27.0972 15.2226L26.6234 15.1337V15.6157V21.4041ZM23.9028 21.5712L24.3765 21.66V21.1781V15.6157V15.1337L23.9028 15.2226C22.5387 15.4783 21.7905 16.077 21.4038 16.7567C21.0332 17.408 21.0333 18.0724 21.0333 18.3865L21.0334 18.3969L21.0333 18.4074C21.0333 18.7215 21.0332 19.386 21.4038 20.0373C21.7905 20.7169 22.5387 21.3155 23.9028 21.5712ZM26.6234 30.2527V30.7347L27.0972 30.6459C28.4612 30.3901 29.2095 29.7914 29.5962 29.1118C29.9667 28.4605 29.9666 27.796 29.9666 27.4819L29.9666 27.4715L29.9666 27.461C29.9666 27.1469 29.9667 26.4825 29.5962 25.8312C29.2095 25.1515 28.4612 24.5529 27.0972 24.2971L26.6234 24.2083V24.6902V30.2527Z" stroke="#343434" stroke-width="0.8"/>
<path d="M3.80667 17.4343L4.49883 18.1745V17.1611V11.6594C4.49883 5.4256 9.2359 0.4 15.0021 0.4H35.998C41.7642 0.4 46.5012 5.4256 46.5012 11.6594V19.608H44.2543V11.6594C44.2543 6.83163 40.5755 2.85822 35.998 2.85822H15.0021C10.4243 2.85822 6.74578 6.83186 6.74578 11.6594V17.161V18.1744L7.43794 17.4342L9.09016 15.6674L10.6971 17.3858L5.62236 22.8123L0.547635 17.3857L2.15437 15.6674L3.80667 17.4343Z" stroke="#343434" stroke-width="0.8"/>
<path d="M4.49879 34.1105V27.0575H6.74574V34.1105C6.74574 38.9381 10.4245 42.9115 15.002 42.9115H35.998C40.5758 42.9115 44.2543 38.9379 44.2543 34.1105V29.5043V28.4909L43.5622 29.2311L41.9099 30.9979L40.303 29.2797L45.3776 23.8532L50.4523 29.2797L48.8456 30.9978L47.1933 29.231L46.5012 28.4909V29.5042V34.1105C46.5012 40.3442 41.7641 45.3697 35.9979 45.3697H15.002C9.23576 45.3697 4.49879 40.3441 4.49879 34.1105Z" stroke="#343434" stroke-width="0.8"/>
</svg>
