<svg width="42" height="46" viewBox="0 0 42 46" fill="none" xmlns="http://www.w3.org/2000/svg">
<path d="M38.5274 18.8984L38.4906 18.8997C38.4535 18.901 38.4079 18.9181 38.3672 18.9642L38.3636 18.9683L38.3635 18.9683L26.4691 32.1304L26.4674 32.1323C26.357 32.2531 26.1929 32.3331 26.0709 32.3794C25.9273 32.4338 25.7425 32.4791 25.5409 32.4791C25.3415 32.4791 25.1604 32.4359 25.0191 32.3826C24.9477 32.3557 24.8802 32.3238 24.8202 32.2886C24.7696 32.2589 24.692 32.2081 24.6266 32.1331C24.6263 32.1327 24.626 32.1323 24.6256 32.132L19.0269 25.7288L19.0267 25.7285C18.7213 25.3787 18.3058 25.2498 17.8535 25.251L17.8521 25.251C17.4042 25.251 16.985 25.3821 16.6726 25.7264L3.37644 40.416C3.37642 40.4161 3.37639 40.4161 3.37636 40.4161C3.3333 40.464 3.30259 40.5375 3.30308 40.6222C3.30357 40.707 3.33515 40.7798 3.37848 40.8266C3.42038 40.8719 3.46676 40.8876 3.50445 40.8873C3.5422 40.887 3.58877 40.8707 3.63051 40.8244L3.63111 40.8237L16.9232 26.1324C16.9238 26.1318 16.9244 26.1311 16.925 26.1305C16.9903 26.0579 17.0671 26.0075 17.1203 25.9764C17.1821 25.9403 17.2514 25.9077 17.3244 25.8802C17.4678 25.8261 17.6511 25.7817 17.8507 25.7813C18.0525 25.7794 18.2354 25.8233 18.3772 25.8771C18.4492 25.9045 18.5171 25.9368 18.577 25.9724C18.6278 26.0025 18.7049 26.0534 18.7697 26.1279C18.7699 26.1281 18.7701 26.1283 18.7702 26.1285L24.3686 32.5314L38.5274 18.8984ZM38.5274 18.8984C38.5466 18.9026 38.5666 18.9111 38.5866 18.925L38.6071 18.8955L38.5866 18.925C38.62 18.9482 38.653 18.9869 38.6744 19.0414C38.6959 19.0962 38.7025 19.1592 38.6917 19.2206C38.6808 19.2819 38.6542 19.3323 38.6218 19.3675L38.6184 19.3712L26.7226 32.5348L26.7221 32.5353C26.4133 32.878 25.9953 33.0094 25.5437 33.0094L25.5423 33.0094C25.092 33.0107 24.676 32.882 24.3689 32.5317L38.5274 18.8984ZM41.0952 16.8667V16.3667H40.5952H37.0952C37.0233 16.3667 36.9928 16.3434 36.9692 16.3141C36.9358 16.2724 36.9048 16.1955 36.9043 16.0973C36.9037 15.9989 36.9339 15.9243 36.9652 15.8851C36.9862 15.8589 37.0163 15.8334 37.0952 15.8334H41.2952C41.3636 15.8334 41.4952 15.9092 41.4952 16.1V20.7C41.4952 20.826 41.4546 20.8822 41.4282 20.9078C41.3957 20.9394 41.3464 20.9607 41.2897 20.9613C41.2334 20.9619 41.1888 20.9421 41.1608 20.9151C41.1386 20.8938 41.0952 20.8381 41.0952 20.7V16.8667ZM0.495068 0.766745H0.495111L0.495024 0.760129C0.492752 0.588465 0.61561 0.501515 0.702836 0.500021C0.747862 0.499322 0.789811 0.516487 0.82598 0.5561C0.863456 0.597145 0.896333 0.666153 0.895114 0.76027L0.895072 0.76027V0.766745V44.4666V44.9666H1.39507H41.2952V44.9666L41.3033 44.9665C41.3862 44.9652 41.4187 44.9918 41.4409 45.0189C41.4738 45.059 41.505 45.1347 41.505 45.2332C41.505 45.3318 41.4738 45.4074 41.4409 45.4475C41.4187 45.4747 41.3862 45.5013 41.3033 45.5V45.4999H41.2952H0.69507C0.626648 45.4999 0.495068 45.4241 0.495068 45.2332V0.766745Z" stroke="#343434"/>
</svg>
