<svg width="51" height="50" viewBox="0 0 51 50" fill="none" xmlns="http://www.w3.org/2000/svg">
<mask id="path-1-inside-1_282_438" fill="white">
<path d="M0.80562 0.789561C0.80562 0.353898 1.16132 0 1.5992 0C2.03708 0 2.39277 0.353898 2.39277 0.789561L2.39215 47.5609L49.4014 47.5603C49.8393 47.5603 50.195 47.9142 50.195 48.3498C50.195 48.7855 49.8393 49.1394 49.4014 49.1394L1.59857 49.14C1.16069 49.14 0.804993 48.7861 0.804993 48.3504L0.80562 0.789561ZM25.5 5.10499C27.51 5.10499 29.3311 5.9164 30.6479 7.22651C31.9647 8.53662 32.7802 10.3485 32.7802 12.3484C32.7802 14.3482 31.9647 16.1601 30.6479 17.4702C29.3311 18.7803 27.51 19.5917 25.5 19.5917C23.49 19.5917 21.6689 18.7803 20.3521 17.4702C19.0353 16.1601 18.2198 14.3482 18.2198 12.3484C18.2198 10.3485 19.0353 8.53662 20.3521 7.22651C21.6689 5.9164 23.49 5.10499 25.5 5.10499ZM29.5212 8.3475C28.493 7.3245 27.0702 6.69036 25.5 6.69036C23.9298 6.69036 22.507 7.3245 21.4788 8.3475C20.4506 9.37049 19.8132 10.7861 19.8132 12.3484C19.8132 13.9106 20.4506 15.3262 21.4788 16.3492C22.507 17.3722 23.9298 18.0063 25.5 18.0063C27.0702 18.0063 28.493 17.3722 29.5212 16.3492C30.5494 15.3262 31.1868 13.9106 31.1868 12.3484C31.1868 10.7861 30.5494 9.37049 29.5212 8.3475ZM27.7954 10.4116C27.8399 10.8454 27.5219 11.2342 27.0859 11.2785C26.6499 11.3229 26.2591 11.0064 26.2145 10.5726C26.1976 10.4078 26.1217 10.258 26.0094 10.1463C25.8983 10.0358 25.7478 9.9597 25.5809 9.94222C25.414 9.92474 25.2503 9.96656 25.1161 10.0527C24.9843 10.137 24.8796 10.2674 24.8275 10.4259C24.7855 10.5533 24.7924 10.6893 24.8745 10.8298C25.0201 11.0782 25.3369 11.3534 25.8852 11.6587C26.7045 12.1137 27.2151 12.5905 27.4968 13.0693C27.8418 13.6553 27.865 14.2252 27.685 14.767L27.6681 14.8132C27.493 15.3056 27.1605 15.7094 26.7427 15.9772C26.6028 16.0665 26.4529 16.1414 26.2961 16.1994V16.333C26.2961 16.7705 25.9391 17.1257 25.4994 17.1257C25.0596 17.1257 24.7027 16.7705 24.7027 16.333V16.2013C24.384 16.0846 24.0979 15.9011 23.8639 15.667C23.5032 15.3069 23.261 14.8244 23.2046 14.287C23.16 13.8532 23.4781 13.4643 23.9141 13.42C24.3501 13.3757 24.7409 13.6922 24.7855 14.126C24.8024 14.2901 24.8783 14.4405 24.9906 14.5523C25.1016 14.6627 25.2516 14.7383 25.4184 14.7557C25.5853 14.7732 25.749 14.7314 25.8833 14.6453C26.0081 14.5654 26.1098 14.4443 26.1637 14.2982L26.1719 14.2714C26.2145 14.1428 26.2089 14.0061 26.128 13.8682C25.983 13.6216 25.6656 13.3458 25.1136 13.0393C24.2905 12.5812 23.7792 12.1062 23.4994 11.6287C23.1563 11.0445 23.1337 10.474 23.3144 9.93036C23.4837 9.41855 23.8244 8.99787 24.2566 8.72074C24.3965 8.63149 24.5458 8.55659 24.7027 8.49854V8.36435C24.7027 7.92681 25.0596 7.57167 25.4994 7.57167C25.9391 7.57167 26.2961 7.92681 26.2961 8.36435V8.49667C26.6154 8.61339 26.9015 8.79751 27.1361 9.03157C27.4974 9.39171 27.7389 9.87294 27.7954 10.4116ZM37.7136 20.7083C37.7136 20.2708 38.0705 19.9157 38.5103 19.9157C38.95 19.9157 39.307 20.2708 39.307 20.7083V21.9473C39.307 22.3848 38.95 22.74 38.5103 22.74C38.0705 22.74 37.7136 22.3848 37.7136 21.9473V20.7083ZM11.7902 27.8287C11.7902 27.3912 12.1472 27.036 12.587 27.036C13.0267 27.036 13.3837 27.3912 13.3837 27.8287V29.0677C13.3837 29.5052 13.0267 29.8604 12.587 29.8604C12.1472 29.8604 11.7902 29.5052 11.7902 29.0677V27.8287ZM11.7902 31.3889C11.7902 30.9514 12.1472 30.5963 12.587 30.5963C13.0267 30.5963 13.3837 30.9514 13.3837 31.3889V32.6279C13.3837 33.0654 13.0267 33.4206 12.587 33.4206C12.1472 33.4206 11.7902 33.0654 11.7902 32.6279V31.3889ZM11.7902 34.9491C11.7902 34.5116 12.1472 34.1564 12.587 34.1564C13.0267 34.1564 13.3837 34.5116 13.3837 34.9491V36.1881C13.3837 36.6256 13.0267 36.9808 12.587 36.9808C12.1472 36.9808 11.7902 36.6256 11.7902 36.1881V34.9491ZM11.7902 38.5093C11.7902 38.0718 12.1472 37.7167 12.587 37.7167C13.0267 37.7167 13.3837 38.0718 13.3837 38.5093V39.7483C13.3837 40.1858 13.0267 40.541 12.587 40.541C12.1472 40.541 11.7902 40.1858 11.7902 39.7483V38.5093ZM11.7902 42.0695C11.7902 41.632 12.1472 41.2769 12.587 41.2769C13.0267 41.2769 13.3837 41.632 13.3837 42.0695V43.3085C13.3837 43.746 13.0267 44.1012 12.587 44.1012C12.1472 44.1012 11.7902 43.746 11.7902 43.3085V42.0695ZM20.4311 31.3889C20.4311 30.9514 20.7881 30.5963 21.2278 30.5963C21.6676 30.5963 22.0246 30.9514 22.0246 31.3889V32.6279C22.0246 33.0654 21.6676 33.4206 21.2278 33.4206C20.7881 33.4206 20.4311 33.0654 20.4311 32.6279V31.3889ZM20.4311 34.9491C20.4311 34.5116 20.7881 34.1564 21.2278 34.1564C21.6676 34.1564 22.0246 34.5116 22.0246 34.9491V36.1881C22.0246 36.6256 21.6676 36.9808 21.2278 36.9808C20.7881 36.9808 20.4311 36.6256 20.4311 36.1881V34.9491ZM20.4311 38.5093C20.4311 38.0718 20.7881 37.7167 21.2278 37.7167C21.6676 37.7167 22.0246 38.0718 22.0246 38.5093V39.7483C22.0246 40.1858 21.6676 40.541 21.2278 40.541C20.7881 40.541 20.4311 40.1858 20.4311 39.7483V38.5093ZM20.4311 42.0695C20.4311 41.632 20.7881 41.2769 21.2278 41.2769C21.6676 41.2769 22.0246 41.632 22.0246 42.0695V43.3085C22.0246 43.746 21.6676 44.1012 21.2278 44.1012C20.7881 44.1012 20.4311 43.746 20.4311 43.3085V42.0695ZM29.0727 24.2685C29.0727 23.831 29.4296 23.4759 29.8694 23.4759C30.3091 23.4759 30.6661 23.831 30.6661 24.2685V25.5075C30.6661 25.945 30.3091 26.3002 29.8694 26.3002C29.4296 26.3002 29.0727 25.945 29.0727 25.5075V24.2685ZM29.0727 27.8287C29.0727 27.3912 29.4296 27.036 29.8694 27.036C30.3091 27.036 30.6661 27.3912 30.6661 27.8287V29.0677C30.6661 29.5052 30.3091 29.8604 29.8694 29.8604C29.4296 29.8604 29.0727 29.5052 29.0727 29.0677V27.8287ZM29.0727 31.3889C29.0727 30.9514 29.4296 30.5963 29.8694 30.5963C30.3091 30.5963 30.6661 30.9514 30.6661 31.3889V32.6279C30.6661 33.0654 30.3091 33.4206 29.8694 33.4206C29.4296 33.4206 29.0727 33.0654 29.0727 32.6279V31.3889ZM29.0727 34.9491C29.0727 34.5116 29.4296 34.1564 29.8694 34.1564C30.3091 34.1564 30.6661 34.5116 30.6661 34.9491V36.1881C30.6661 36.6256 30.3091 36.9808 29.8694 36.9808C29.4296 36.9808 29.0727 36.6256 29.0727 36.1881V34.9491ZM29.0727 38.5093C29.0727 38.0718 29.4296 37.7167 29.8694 37.7167C30.3091 37.7167 30.6661 38.0718 30.6661 38.5093V39.7483C30.6661 40.1858 30.3091 40.541 29.8694 40.541C29.4296 40.541 29.0727 40.1858 29.0727 39.7483V38.5093ZM29.0727 42.0695C29.0727 41.632 29.4296 41.2769 29.8694 41.2769C30.3091 41.2769 30.6661 41.632 30.6661 42.0695V43.3085C30.6661 43.746 30.3091 44.1012 29.8694 44.1012C29.4296 44.1012 29.0727 43.746 29.0727 43.3085V42.0695ZM37.7136 24.2685C37.7136 23.831 38.0705 23.4759 38.5103 23.4759C38.95 23.4759 39.307 23.831 39.307 24.2685V25.5075C39.307 25.945 38.95 26.3002 38.5103 26.3002C38.0705 26.3002 37.7136 25.945 37.7136 25.5075V24.2685ZM37.7136 27.8287C37.7136 27.3912 38.0705 27.036 38.5103 27.036C38.95 27.036 39.307 27.3912 39.307 27.8287V29.0677C39.307 29.5052 38.95 29.8604 38.5103 29.8604C38.0705 29.8604 37.7136 29.5052 37.7136 29.0677V27.8287ZM37.7136 31.3889C37.7136 30.9514 38.0705 30.5963 38.5103 30.5963C38.95 30.5963 39.307 30.9514 39.307 31.3889V32.6279C39.307 33.0654 38.95 33.4206 38.5103 33.4206C38.0705 33.4206 37.7136 33.0654 37.7136 32.6279V31.3889ZM37.7136 34.9491C37.7136 34.5116 38.0705 34.1564 38.5103 34.1564C38.95 34.1564 39.307 34.5116 39.307 34.9491V36.1881C39.307 36.6256 38.95 36.9808 38.5103 36.9808C38.0705 36.9808 37.7136 36.6256 37.7136 36.1881V34.9491ZM37.7136 38.5093C37.7136 38.0718 38.0705 37.7167 38.5103 37.7167C38.95 37.7167 39.307 38.0718 39.307 38.5093V39.7483C39.307 40.1858 38.95 40.541 38.5103 40.541C38.0705 40.541 37.7136 40.1858 37.7136 39.7483V38.5093ZM37.7136 42.0695C37.7136 41.632 38.0705 41.2769 38.5103 41.2769C38.95 41.2769 39.307 41.632 39.307 42.0695V43.3085C39.307 43.746 38.95 44.1012 38.5103 44.1012C38.0705 44.1012 37.7136 43.746 37.7136 43.3085V42.0695ZM4.37641 28.9803L12.1604 24.0707C12.4213 23.9059 12.7419 23.9115 12.9916 24.0569L21.0955 28.1165L29.3343 20.6341C29.4158 20.5604 29.5087 20.5067 29.6065 20.4724L37.9802 17.1275L46.1801 4.67744C46.4203 4.31169 46.9147 4.20933 47.2823 4.44838C47.515 4.60005 47.6417 4.85283 47.6424 5.11123L47.643 45.1803C47.643 45.6179 47.286 45.973 46.8463 45.973H4.7848C4.34504 45.973 3.98809 45.6179 3.98809 45.1803V29.6613C3.98809 29.3723 4.14366 29.1189 4.37641 28.9803ZM12.6334 25.6485L5.58151 30.0969V44.3877H46.0496V7.7664L39.1765 18.2017C39.0893 18.3322 38.9632 18.4395 38.8057 18.5019L30.3004 21.8992L21.763 29.6531C21.5258 29.8666 21.172 29.9253 20.8696 29.7736L12.6334 25.6485Z"/>
</mask>
<path d="M0.80562 0.789561C0.80562 0.353898 1.16132 0 1.5992 0C2.03708 0 2.39277 0.353898 2.39277 0.789561L2.39215 47.5609L49.4014 47.5603C49.8393 47.5603 50.195 47.9142 50.195 48.3498C50.195 48.7855 49.8393 49.1394 49.4014 49.1394L1.59857 49.14C1.16069 49.14 0.804993 48.7861 0.804993 48.3504L0.80562 0.789561ZM25.5 5.10499C27.51 5.10499 29.3311 5.9164 30.6479 7.22651C31.9647 8.53662 32.7802 10.3485 32.7802 12.3484C32.7802 14.3482 31.9647 16.1601 30.6479 17.4702C29.3311 18.7803 27.51 19.5917 25.5 19.5917C23.49 19.5917 21.6689 18.7803 20.3521 17.4702C19.0353 16.1601 18.2198 14.3482 18.2198 12.3484C18.2198 10.3485 19.0353 8.53662 20.3521 7.22651C21.6689 5.9164 23.49 5.10499 25.5 5.10499ZM29.5212 8.3475C28.493 7.3245 27.0702 6.69036 25.5 6.69036C23.9298 6.69036 22.507 7.3245 21.4788 8.3475C20.4506 9.37049 19.8132 10.7861 19.8132 12.3484C19.8132 13.9106 20.4506 15.3262 21.4788 16.3492C22.507 17.3722 23.9298 18.0063 25.5 18.0063C27.0702 18.0063 28.493 17.3722 29.5212 16.3492C30.5494 15.3262 31.1868 13.9106 31.1868 12.3484C31.1868 10.7861 30.5494 9.37049 29.5212 8.3475ZM27.7954 10.4116C27.8399 10.8454 27.5219 11.2342 27.0859 11.2785C26.6499 11.3229 26.2591 11.0064 26.2145 10.5726C26.1976 10.4078 26.1217 10.258 26.0094 10.1463C25.8983 10.0358 25.7478 9.9597 25.5809 9.94222C25.414 9.92474 25.2503 9.96656 25.1161 10.0527C24.9843 10.137 24.8796 10.2674 24.8275 10.4259C24.7855 10.5533 24.7924 10.6893 24.8745 10.8298C25.0201 11.0782 25.3369 11.3534 25.8852 11.6587C26.7045 12.1137 27.2151 12.5905 27.4968 13.0693C27.8418 13.6553 27.865 14.2252 27.685 14.767L27.6681 14.8132C27.493 15.3056 27.1605 15.7094 26.7427 15.9772C26.6028 16.0665 26.4529 16.1414 26.2961 16.1994V16.333C26.2961 16.7705 25.9391 17.1257 25.4994 17.1257C25.0596 17.1257 24.7027 16.7705 24.7027 16.333V16.2013C24.384 16.0846 24.0979 15.9011 23.8639 15.667C23.5032 15.3069 23.261 14.8244 23.2046 14.287C23.16 13.8532 23.4781 13.4643 23.9141 13.42C24.3501 13.3757 24.7409 13.6922 24.7855 14.126C24.8024 14.2901 24.8783 14.4405 24.9906 14.5523C25.1016 14.6627 25.2516 14.7383 25.4184 14.7557C25.5853 14.7732 25.749 14.7314 25.8833 14.6453C26.0081 14.5654 26.1098 14.4443 26.1637 14.2982L26.1719 14.2714C26.2145 14.1428 26.2089 14.0061 26.128 13.8682C25.983 13.6216 25.6656 13.3458 25.1136 13.0393C24.2905 12.5812 23.7792 12.1062 23.4994 11.6287C23.1563 11.0445 23.1337 10.474 23.3144 9.93036C23.4837 9.41855 23.8244 8.99787 24.2566 8.72074C24.3965 8.63149 24.5458 8.55659 24.7027 8.49854V8.36435C24.7027 7.92681 25.0596 7.57167 25.4994 7.57167C25.9391 7.57167 26.2961 7.92681 26.2961 8.36435V8.49667C26.6154 8.61339 26.9015 8.79751 27.1361 9.03157C27.4974 9.39171 27.7389 9.87294 27.7954 10.4116ZM37.7136 20.7083C37.7136 20.2708 38.0705 19.9157 38.5103 19.9157C38.95 19.9157 39.307 20.2708 39.307 20.7083V21.9473C39.307 22.3848 38.95 22.74 38.5103 22.74C38.0705 22.74 37.7136 22.3848 37.7136 21.9473V20.7083ZM11.7902 27.8287C11.7902 27.3912 12.1472 27.036 12.587 27.036C13.0267 27.036 13.3837 27.3912 13.3837 27.8287V29.0677C13.3837 29.5052 13.0267 29.8604 12.587 29.8604C12.1472 29.8604 11.7902 29.5052 11.7902 29.0677V27.8287ZM11.7902 31.3889C11.7902 30.9514 12.1472 30.5963 12.587 30.5963C13.0267 30.5963 13.3837 30.9514 13.3837 31.3889V32.6279C13.3837 33.0654 13.0267 33.4206 12.587 33.4206C12.1472 33.4206 11.7902 33.0654 11.7902 32.6279V31.3889ZM11.7902 34.9491C11.7902 34.5116 12.1472 34.1564 12.587 34.1564C13.0267 34.1564 13.3837 34.5116 13.3837 34.9491V36.1881C13.3837 36.6256 13.0267 36.9808 12.587 36.9808C12.1472 36.9808 11.7902 36.6256 11.7902 36.1881V34.9491ZM11.7902 38.5093C11.7902 38.0718 12.1472 37.7167 12.587 37.7167C13.0267 37.7167 13.3837 38.0718 13.3837 38.5093V39.7483C13.3837 40.1858 13.0267 40.541 12.587 40.541C12.1472 40.541 11.7902 40.1858 11.7902 39.7483V38.5093ZM11.7902 42.0695C11.7902 41.632 12.1472 41.2769 12.587 41.2769C13.0267 41.2769 13.3837 41.632 13.3837 42.0695V43.3085C13.3837 43.746 13.0267 44.1012 12.587 44.1012C12.1472 44.1012 11.7902 43.746 11.7902 43.3085V42.0695ZM20.4311 31.3889C20.4311 30.9514 20.7881 30.5963 21.2278 30.5963C21.6676 30.5963 22.0246 30.9514 22.0246 31.3889V32.6279C22.0246 33.0654 21.6676 33.4206 21.2278 33.4206C20.7881 33.4206 20.4311 33.0654 20.4311 32.6279V31.3889ZM20.4311 34.9491C20.4311 34.5116 20.7881 34.1564 21.2278 34.1564C21.6676 34.1564 22.0246 34.5116 22.0246 34.9491V36.1881C22.0246 36.6256 21.6676 36.9808 21.2278 36.9808C20.7881 36.9808 20.4311 36.6256 20.4311 36.1881V34.9491ZM20.4311 38.5093C20.4311 38.0718 20.7881 37.7167 21.2278 37.7167C21.6676 37.7167 22.0246 38.0718 22.0246 38.5093V39.7483C22.0246 40.1858 21.6676 40.541 21.2278 40.541C20.7881 40.541 20.4311 40.1858 20.4311 39.7483V38.5093ZM20.4311 42.0695C20.4311 41.632 20.7881 41.2769 21.2278 41.2769C21.6676 41.2769 22.0246 41.632 22.0246 42.0695V43.3085C22.0246 43.746 21.6676 44.1012 21.2278 44.1012C20.7881 44.1012 20.4311 43.746 20.4311 43.3085V42.0695ZM29.0727 24.2685C29.0727 23.831 29.4296 23.4759 29.8694 23.4759C30.3091 23.4759 30.6661 23.831 30.6661 24.2685V25.5075C30.6661 25.945 30.3091 26.3002 29.8694 26.3002C29.4296 26.3002 29.0727 25.945 29.0727 25.5075V24.2685ZM29.0727 27.8287C29.0727 27.3912 29.4296 27.036 29.8694 27.036C30.3091 27.036 30.6661 27.3912 30.6661 27.8287V29.0677C30.6661 29.5052 30.3091 29.8604 29.8694 29.8604C29.4296 29.8604 29.0727 29.5052 29.0727 29.0677V27.8287ZM29.0727 31.3889C29.0727 30.9514 29.4296 30.5963 29.8694 30.5963C30.3091 30.5963 30.6661 30.9514 30.6661 31.3889V32.6279C30.6661 33.0654 30.3091 33.4206 29.8694 33.4206C29.4296 33.4206 29.0727 33.0654 29.0727 32.6279V31.3889ZM29.0727 34.9491C29.0727 34.5116 29.4296 34.1564 29.8694 34.1564C30.3091 34.1564 30.6661 34.5116 30.6661 34.9491V36.1881C30.6661 36.6256 30.3091 36.9808 29.8694 36.9808C29.4296 36.9808 29.0727 36.6256 29.0727 36.1881V34.9491ZM29.0727 38.5093C29.0727 38.0718 29.4296 37.7167 29.8694 37.7167C30.3091 37.7167 30.6661 38.0718 30.6661 38.5093V39.7483C30.6661 40.1858 30.3091 40.541 29.8694 40.541C29.4296 40.541 29.0727 40.1858 29.0727 39.7483V38.5093ZM29.0727 42.0695C29.0727 41.632 29.4296 41.2769 29.8694 41.2769C30.3091 41.2769 30.6661 41.632 30.6661 42.0695V43.3085C30.6661 43.746 30.3091 44.1012 29.8694 44.1012C29.4296 44.1012 29.0727 43.746 29.0727 43.3085V42.0695ZM37.7136 24.2685C37.7136 23.831 38.0705 23.4759 38.5103 23.4759C38.95 23.4759 39.307 23.831 39.307 24.2685V25.5075C39.307 25.945 38.95 26.3002 38.5103 26.3002C38.0705 26.3002 37.7136 25.945 37.7136 25.5075V24.2685ZM37.7136 27.8287C37.7136 27.3912 38.0705 27.036 38.5103 27.036C38.95 27.036 39.307 27.3912 39.307 27.8287V29.0677C39.307 29.5052 38.95 29.8604 38.5103 29.8604C38.0705 29.8604 37.7136 29.5052 37.7136 29.0677V27.8287ZM37.7136 31.3889C37.7136 30.9514 38.0705 30.5963 38.5103 30.5963C38.95 30.5963 39.307 30.9514 39.307 31.3889V32.6279C39.307 33.0654 38.95 33.4206 38.5103 33.4206C38.0705 33.4206 37.7136 33.0654 37.7136 32.6279V31.3889ZM37.7136 34.9491C37.7136 34.5116 38.0705 34.1564 38.5103 34.1564C38.95 34.1564 39.307 34.5116 39.307 34.9491V36.1881C39.307 36.6256 38.95 36.9808 38.5103 36.9808C38.0705 36.9808 37.7136 36.6256 37.7136 36.1881V34.9491ZM37.7136 38.5093C37.7136 38.0718 38.0705 37.7167 38.5103 37.7167C38.95 37.7167 39.307 38.0718 39.307 38.5093V39.7483C39.307 40.1858 38.95 40.541 38.5103 40.541C38.0705 40.541 37.7136 40.1858 37.7136 39.7483V38.5093ZM37.7136 42.0695C37.7136 41.632 38.0705 41.2769 38.5103 41.2769C38.95 41.2769 39.307 41.632 39.307 42.0695V43.3085C39.307 43.746 38.95 44.1012 38.5103 44.1012C38.0705 44.1012 37.7136 43.746 37.7136 43.3085V42.0695ZM4.37641 28.9803L12.1604 24.0707C12.4213 23.9059 12.7419 23.9115 12.9916 24.0569L21.0955 28.1165L29.3343 20.6341C29.4158 20.5604 29.5087 20.5067 29.6065 20.4724L37.9802 17.1275L46.1801 4.67744C46.4203 4.31169 46.9147 4.20933 47.2823 4.44838C47.515 4.60005 47.6417 4.85283 47.6424 5.11123L47.643 45.1803C47.643 45.6179 47.286 45.973 46.8463 45.973H4.7848C4.34504 45.973 3.98809 45.6179 3.98809 45.1803V29.6613C3.98809 29.3723 4.14366 29.1189 4.37641 28.9803ZM12.6334 25.6485L5.58151 30.0969V44.3877H46.0496V7.7664L39.1765 18.2017C39.0893 18.3322 38.9632 18.4395 38.8057 18.5019L30.3004 21.8992L21.763 29.6531C21.5258 29.8666 21.172 29.9253 20.8696 29.7736L12.6334 25.6485Z" stroke="#343434" stroke-width="1.4" mask="url(#path-1-inside-1_282_438)"/>
</svg>
