<svg width="47" height="46" viewBox="0 0 47 46" fill="none" xmlns="http://www.w3.org/2000/svg">
<path d="M41.7015 26.9874H31.6935V8.98989C31.6923 8.18551 31.4093 7.40697 30.8935 6.78967C30.3778 6.17237 29.6621 5.75535 28.8707 5.61113V3.15415C28.8649 2.65324 28.75 2.15962 28.5338 1.70772C28.3176 1.25583 28.0054 0.856542 27.619 0.53772C27.3447 0.309057 27.0212 0.146838 26.6738 0.0637076C26.3265 -0.0194233 25.9646 -0.021221 25.6165 0.0584544L3.8492 5.25272C2.02036 5.68879 0.917084 6.81504 0.880323 8.27306C0.830035 8.50869 0.804623 8.74895 0.804504 8.98989V42.5095C0.804991 43.4204 1.16692 44.2938 1.81083 44.9381C2.45474 45.5823 3.32799 45.9447 4.23886 45.9457H41.7015C42.8929 45.9445 44.0352 45.4707 44.8777 44.6283C45.7202 43.7859 46.1942 42.6436 46.1955 41.4522V31.4814C46.1942 30.2899 45.7203 29.1476 44.8778 28.3051C44.0353 27.4626 42.893 26.9887 41.7015 26.9874ZM25.9005 1.24812C26.069 1.21308 26.2434 1.21737 26.41 1.26064C26.5767 1.30391 26.7311 1.38501 26.8613 1.49763C27.1034 1.7013 27.2989 1.9546 27.4347 2.24039C27.5704 2.52619 27.6431 2.8378 27.648 3.15415V5.55507H7.84736L25.9005 1.24812ZM4.23886 44.7207C3.65261 44.7201 3.09055 44.4869 2.67601 44.0724C2.26147 43.6578 2.02832 43.0958 2.02771 42.5095V8.98989C2.02832 8.40364 2.26147 7.84158 2.67601 7.42704C3.09055 7.0125 3.65261 6.77935 4.23886 6.77874H28.2596C28.8458 6.77935 29.4079 7.0125 29.8224 7.42704C30.237 7.84158 30.4701 8.40364 30.4707 8.98989V26.9874H25.2406C26.7192 24.9663 27.4739 22.5061 27.3829 20.0035C27.292 17.501 26.3606 15.102 24.7391 13.1937C23.1175 11.2854 20.9004 9.9789 18.4454 9.48507C15.9904 8.99124 13.4405 9.33884 11.2073 10.4718C11.1753 10.4843 11.1446 10.4997 11.1154 10.5177C8.50522 11.873 6.53673 14.2053 5.63911 17.006C4.7415 19.8067 4.98755 22.8487 6.32364 25.4687C6.33671 25.4985 6.35207 25.5272 6.36959 25.5546C6.70827 26.2056 7.11078 26.8213 7.5712 27.3927C7.57809 27.4014 7.58453 27.4106 7.59188 27.4189C8.63669 28.7084 9.95621 29.7484 11.4542 30.463C12.9521 31.1776 14.5907 31.5487 16.2504 31.5494C16.3115 31.5494 16.3726 31.5466 16.4342 31.5457V34.1727H9.74329C9.12795 34.1734 8.53803 34.4182 8.10292 34.8533C7.66781 35.2884 7.42305 35.8783 7.42232 36.4937V38.8601C7.42305 39.4755 7.66781 40.0654 8.10292 40.5005C8.53803 40.9356 9.12795 41.1804 9.74329 41.1811H16.4314V41.4508C16.4314 42.0638 16.5571 42.6702 16.8008 43.2326C17.0444 43.795 17.4009 44.3015 17.8481 44.7207H4.23886ZM16.4314 39.957H9.74329C9.45222 39.9567 9.17314 39.841 8.96732 39.6352C8.76151 39.4293 8.64577 39.1503 8.64553 38.8592V36.4927C8.64577 36.2016 8.76149 35.9225 8.96729 35.7166C9.1731 35.5107 9.45218 35.3949 9.74329 35.3945H16.4314V39.957ZM16.5849 30.3188C14.7151 30.3827 12.8653 29.9161 11.2496 28.9729C11.2859 28.9757 11.3217 28.978 11.3585 28.978C11.4214 28.9779 11.4843 28.9741 11.5469 28.9665C11.7653 28.941 11.9821 28.9028 12.1961 28.8521C12.4785 28.7767 12.7731 28.7581 13.0628 28.7974C13.278 28.8265 13.4971 28.8079 13.7044 28.7431C13.9117 28.6782 14.1022 28.5686 14.2625 28.422C14.3764 28.3039 14.4619 28.1614 14.5123 28.0053C14.5628 27.8493 14.577 27.6837 14.5539 27.5213C14.4559 27.0654 14.2187 26.6512 13.8752 26.3358C13.7373 26.198 13.5967 26.0822 13.4832 25.9884C13.4262 25.9425 13.3532 25.8809 13.3137 25.8451C13.2994 25.8074 13.2801 25.7532 13.2631 25.7072C13.1597 25.4052 13.031 25.1123 12.8785 24.8318C12.9217 24.7928 12.9612 24.7499 12.9966 24.7036C13.1137 24.5055 13.1863 24.2843 13.2095 24.0553C13.2327 23.8263 13.2058 23.5951 13.1308 23.3775C13.0723 23.1035 12.9632 22.8428 12.8091 22.6087C12.7373 22.517 12.6898 22.4086 12.6713 22.2935C12.6562 22.1631 12.6286 22.0345 12.589 21.9094C12.516 21.7226 12.4917 21.5204 12.5182 21.3217C12.6648 20.8764 12.5274 20.302 12.1107 19.6137C11.9861 19.4083 11.3387 18.3804 10.7969 18.2908C10.7279 18.2854 10.6608 18.2654 10.6001 18.2322C10.5394 18.1991 10.4863 18.1534 10.4445 18.0982C9.90549 17.5234 9.3789 17.6442 8.5959 18.0693C7.87034 18.4626 7.73111 18.6804 7.59739 19.2792C7.54429 19.5295 7.47475 19.776 7.38924 20.0171C7.17832 20.6937 7.06385 21.3966 7.0492 22.1051C7.03404 22.4442 6.98946 23.4349 6.93065 23.7056C6.92238 23.7134 6.91457 23.7217 6.90629 23.7299C6.206 21.7594 6.14604 19.6179 6.73497 17.6113C7.3239 15.6046 8.53162 13.8352 10.1858 12.5557C10.161 12.7121 10.1446 12.8698 10.1366 13.028C10.111 13.6321 10.2047 14.2353 10.4123 14.8031C10.7836 15.8076 11.3148 15.9317 11.6948 15.86C12.1297 15.7112 12.4945 15.4074 12.7195 15.0067L12.7342 14.9864C12.8565 14.8149 12.9421 14.62 12.9858 14.4139C13.0295 14.2078 13.0304 13.9949 12.9883 13.7885C12.9551 13.626 12.9609 13.458 13.0053 13.2982C13.0507 13.17 13.129 13.0559 13.2323 12.9674C13.4958 13.2303 13.7073 13.5405 13.8559 13.8818C13.8285 14.0225 13.7821 14.1588 13.718 14.2871C13.6001 14.4754 13.5318 14.6906 13.5198 14.9125C13.5077 15.1344 13.5522 15.3558 13.6491 15.5558C13.8133 15.7518 14.022 15.9056 14.2579 16.0044C14.4937 16.1033 14.7498 16.1442 15.0046 16.1237C15.0363 16.1237 15.0681 16.1237 15.1002 16.1237C15.7757 16.1086 16.419 15.8326 16.8955 15.3536C17.1647 15.0413 17.3809 14.6871 17.5356 14.305C17.6377 14.0385 17.7849 13.7915 17.9708 13.5748C18.2157 13.6201 18.4477 13.7186 18.6504 13.8634C18.9582 14.0677 19.3038 14.2083 19.6668 14.277C20.3919 14.3652 20.8335 13.8395 21.1372 13.3717C21.3931 12.9888 21.5842 12.5664 21.7029 12.1214C23.438 13.2656 24.771 14.9246 25.5146 16.8654C26.2582 18.8063 26.375 20.9313 25.8485 22.9419C25.792 22.9492 25.7281 22.9566 25.6739 22.9616C25.3527 22.7188 24.9489 22.6119 24.5496 22.6639C24.1503 22.7159 23.7874 22.9227 23.5391 23.2396C23.4315 23.3574 23.3328 23.483 23.2441 23.6155C23.1762 23.7202 23.0993 23.8187 23.0143 23.9101C22.8594 23.9514 22.746 23.9785 22.6536 24.002C22.2568 24.0882 21.8829 24.2578 21.5567 24.4996C21.2613 24.6761 21.0222 24.933 20.8675 25.2403C20.8161 25.3369 20.7569 25.4291 20.6906 25.516C20.5558 25.677 20.4122 25.8304 20.2605 25.9756C20.1851 26.0505 20.1134 26.1217 20.0519 26.186C19.7801 26.4693 19.5996 26.8275 19.5335 27.2144C18.8234 27.4472 18.1823 27.8528 17.6676 28.3946C17.1529 28.9365 16.7809 29.5977 16.5849 30.3188ZM11.4104 22.2411C11.4265 22.2986 11.4485 22.379 11.4517 22.3965C11.4828 22.7004 11.589 22.9917 11.761 23.2442C11.8404 23.3573 11.8976 23.4844 11.9296 23.6187C11.9563 23.7506 11.9705 23.843 11.9779 23.9078C11.8638 23.9177 11.7543 23.9574 11.6605 24.0231C11.5667 24.0888 11.4918 24.178 11.4435 24.2818C11.2597 24.6825 11.5266 25.0423 11.7417 25.3309L11.7738 25.3741C11.9128 25.614 12.0267 25.8676 12.1139 26.1309C12.1571 26.277 12.2209 26.4162 12.3032 26.5444C12.4202 26.6892 12.5546 26.819 12.7034 26.9309C12.8064 27.0159 12.913 27.1041 13.0085 27.1997C13.1237 27.3111 13.222 27.4386 13.3003 27.5783C13.2592 27.5825 13.2178 27.5825 13.1767 27.5783C12.7582 27.5263 12.3336 27.5533 11.925 27.6578C11.7542 27.6988 11.5812 27.7294 11.4067 27.7497C11.3148 27.7607 11.2312 27.7548 10.6922 27.5135C10.5483 27.4496 10.3347 27.3651 10.087 27.2677C9.53358 27.0637 8.99312 26.8261 8.46862 26.5564C8.12155 26.1183 7.81241 25.6514 7.54455 25.1608C7.5892 24.9491 7.67456 24.7481 7.7959 24.569C8.13869 24.2473 8.1874 23.9988 8.26965 22.1593C8.27662 21.57 8.36855 20.9846 8.5426 20.4215C8.64368 20.135 8.72626 19.8423 8.78981 19.5452C8.80589 19.474 8.82519 19.3876 8.83576 19.3518C8.94225 19.2718 9.05611 19.2021 9.1758 19.1436C9.30276 19.0718 9.43484 19.0094 9.57097 18.957C9.80709 19.2201 10.1213 19.4007 10.4675 19.4722C10.7818 19.7479 11.3778 20.6517 11.3502 20.9495C11.2412 21.3764 11.2621 21.8262 11.4104 22.2411ZM20.5472 11.468C20.5354 11.9156 20.3836 12.3483 20.113 12.705C20.0381 12.8437 19.9357 12.9657 19.812 13.0634C19.6159 13.0026 19.4293 12.9145 19.2578 12.8015C18.8145 12.4746 18.2657 12.3236 17.7176 12.3778C17.0251 12.5212 16.7067 13.1912 16.4309 13.7825C16.3277 14.0389 16.19 14.2799 16.0215 14.4989C15.7665 14.7518 15.4231 14.8955 15.0639 14.8996C14.95 14.8941 14.8622 14.8849 14.796 14.8752C14.8116 14.8385 14.8268 14.8022 14.842 14.7709C14.961 14.5644 15.0349 14.3349 15.0587 14.0976C15.0824 13.8604 15.0556 13.6208 14.9798 13.3947C14.8342 13.0675 14.0548 11.4487 12.9709 11.7478C12.705 11.8424 12.4647 11.9975 12.2692 12.201C12.0736 12.4044 11.9281 12.6506 11.8442 12.92C11.7429 13.2471 11.7196 13.5933 11.7761 13.931C11.8056 14.1773 11.7982 14.1952 11.75 14.2609L11.7348 14.282C11.7068 14.3197 11.6539 14.3923 11.5969 14.4658C11.5859 14.4396 11.5744 14.4102 11.5625 14.3785C11.4127 13.9647 11.3448 13.5257 11.3626 13.0859C11.3932 12.5272 11.5649 11.9852 11.8616 11.5107C13.2123 10.8487 14.6953 10.501 16.1995 10.4936C17.7037 10.4862 19.1901 10.8193 20.5472 11.468ZM21.1198 26.8394C21.3074 26.6605 21.4841 26.4705 21.6491 26.2706C21.7541 26.1357 21.8478 25.9925 21.9294 25.8423C21.9827 25.7146 22.077 25.6083 22.1973 25.5399C22.4133 25.3688 22.6656 25.2494 22.9348 25.1907C23.0364 25.1668 23.1756 25.1337 23.3658 25.0818C23.7398 24.9402 24.0513 24.6704 24.2449 24.3204C24.2987 24.2404 24.3573 24.1637 24.4204 24.0907C24.726 23.7741 24.8404 23.8462 25.0325 24.0139C25.1443 24.1102 25.2831 24.1696 25.4299 24.1839C25.0043 25.2103 24.4092 26.1578 23.6696 26.9869H20.9727C21.0177 26.9404 21.0668 26.8912 21.1198 26.8394ZM44.9723 41.4517C44.9713 42.3189 44.6264 43.1503 44.0132 43.7634C43.4001 44.3766 42.5687 44.7215 41.7015 44.7225H29.0775C28.9597 44.6668 28.827 44.6507 28.6993 44.6766C28.5547 44.7066 28.4073 44.722 28.2596 44.7225H20.9268C20.0596 44.7215 19.2282 44.3766 18.6151 43.7634C18.0019 43.1503 17.657 42.3189 17.656 41.4517V31.4814C17.6565 30.6139 18.0012 29.782 18.6144 29.1685C19.2276 28.5549 20.0593 28.2097 20.9268 28.2088H41.7015C42.5687 28.2097 43.4001 28.5546 44.0132 29.1678C44.6264 29.781 44.9713 30.6124 44.9723 31.4795V41.4517ZM29.8444 30.3978H20.5059C20.4253 30.3978 20.3456 30.4137 20.2713 30.4446C20.1969 30.4755 20.1294 30.5208 20.0726 30.5778C20.0157 30.6348 19.9707 30.7025 19.9401 30.777C19.9095 30.8515 19.8939 30.9312 19.8943 31.0117V41.9218C19.8943 42.084 19.9587 42.2396 20.0734 42.3543C20.1881 42.469 20.3436 42.5334 20.5059 42.5334H29.8444C29.9247 42.5334 30.0043 42.5176 30.0785 42.4869C30.1527 42.4561 30.2201 42.4111 30.2769 42.3543C30.3337 42.2975 30.3787 42.2301 30.4095 42.1559C30.4402 42.0817 30.456 42.0021 30.456 41.9218V31.0117C30.4563 30.9312 30.4407 30.8515 30.4101 30.777C30.3795 30.7025 30.3345 30.6348 30.2777 30.5778C30.2209 30.5208 30.1533 30.4755 30.079 30.4446C30.0046 30.4137 29.9249 30.3978 29.8444 30.3978ZM27.4816 41.3107H22.8686V40.3259C22.8691 39.9444 23.0209 39.5786 23.2907 39.3088C23.5605 39.039 23.9263 38.8873 24.3078 38.8868H26.0425C26.424 38.8873 26.7898 39.039 27.0596 39.3088C27.3294 39.5786 27.4811 39.9444 27.4816 40.3259V41.3107ZM29.2328 41.3107H28.7044V40.3259C28.7036 39.6201 28.423 38.9434 27.9239 38.4443C27.4249 37.9452 26.7483 37.6644 26.0425 37.6636H24.3078C23.602 37.6644 22.9254 37.9452 22.4263 38.4443C21.9273 38.9434 21.6466 39.6201 21.6459 40.3259V41.3107H21.1175V31.6206H29.2328V41.3107ZM25.1749 37.2238C25.6265 37.2239 26.068 37.0901 26.4436 36.8392C26.8191 36.5884 27.1118 36.2318 27.2847 35.8146C27.4576 35.3974 27.5029 34.9383 27.4148 34.4954C27.3268 34.0524 27.1094 33.6455 26.7901 33.3262C26.4707 33.0068 26.0639 32.7893 25.621 32.7011C25.1781 32.613 24.7189 32.6582 24.3017 32.831C23.8844 33.0038 23.5278 33.2965 23.2769 33.672C23.026 34.0474 22.8921 34.4889 22.8921 34.9405C22.8928 35.5458 23.1335 36.1261 23.5615 36.5541C23.9894 36.9821 24.5696 37.223 25.1749 37.2238ZM25.1749 33.88C25.3847 33.8799 25.5898 33.942 25.7642 34.0585C25.9387 34.175 26.0747 34.3406 26.155 34.5344C26.2354 34.7281 26.2565 34.9414 26.2156 35.1471C26.1747 35.3529 26.0737 35.5419 25.9254 35.6903C25.7771 35.8386 25.5882 35.9397 25.3824 35.9807C25.1767 36.0216 24.9634 36.0006 24.7696 35.9204C24.5758 35.8401 24.4101 35.7042 24.2936 35.5298C24.177 35.3554 24.1148 35.1503 24.1148 34.9405C24.1152 34.6594 24.227 34.39 24.4257 34.1912C24.6244 33.9924 24.8938 33.8805 25.1749 33.88ZM31.8685 31.0117C31.8685 30.8495 31.933 30.694 32.0477 30.5793C32.1624 30.4646 32.3179 30.4001 32.4801 30.4001H38.371C38.4527 30.3979 38.534 30.4121 38.6102 30.4418C38.6863 30.4715 38.7557 30.5162 38.8143 30.5732C38.8729 30.6302 38.9194 30.6983 38.9512 30.7736C38.983 30.8489 38.9994 30.9298 38.9994 31.0115C38.9994 31.0932 38.983 31.1741 38.9512 31.2494C38.9194 31.3247 38.8729 31.3929 38.8143 31.4499C38.7557 31.5069 38.6863 31.5515 38.6102 31.5813C38.534 31.611 38.4527 31.6251 38.371 31.6229H32.4801C32.3998 31.6229 32.3203 31.6072 32.2461 31.5765C32.1719 31.5458 32.1045 31.5008 32.0477 31.444C31.9909 31.3873 31.9458 31.3199 31.9151 31.2457C31.8844 31.1715 31.8685 31.092 31.8685 31.0117ZM41.7263 34.6492C41.7263 34.7295 41.7105 34.809 41.6798 34.8832C41.649 34.9574 41.604 35.0247 41.5472 35.0815C41.4904 35.1383 41.4229 35.1833 41.3487 35.214C41.2745 35.2446 41.195 35.2604 41.1147 35.2603H32.4801C32.3984 35.2626 32.3171 35.2484 32.241 35.2187C32.1649 35.189 32.0955 35.1443 32.0369 35.0873C31.9783 35.0303 31.9317 34.9622 31.8999 34.8869C31.8682 34.8116 31.8518 34.7307 31.8518 34.649C31.8518 34.5672 31.8682 34.4863 31.8999 34.4111C31.9317 34.3358 31.9783 34.2676 32.0369 34.2106C32.0955 34.1536 32.1649 34.1089 32.241 34.0792C32.3171 34.0495 32.3984 34.0354 32.4801 34.0376H41.1147C41.2765 34.0376 41.4318 34.1017 41.5464 34.2159C41.661 34.3301 41.7257 34.4851 41.7263 34.6469V34.6492ZM41.7263 38.2867C41.7263 38.4489 41.6619 38.6044 41.5472 38.7191C41.4325 38.8338 41.2769 38.8983 41.1147 38.8983H32.4801C32.3179 38.8983 32.1624 38.8338 32.0477 38.7191C31.933 38.6044 31.8685 38.4489 31.8685 38.2867C31.8685 38.1244 31.933 37.9689 32.0477 37.8542C32.1624 37.7395 32.3179 37.675 32.4801 37.675H41.1147C41.2765 37.675 41.4318 37.7392 41.5464 37.8534C41.661 37.9676 41.7257 38.1226 41.7263 38.2844V38.2867ZM41.7263 41.9241C41.7263 42.0863 41.6619 42.2419 41.5472 42.3566C41.4325 42.4713 41.2769 42.5357 41.1147 42.5357H32.4801C32.3179 42.5357 32.1624 42.4713 32.0477 42.3566C31.933 42.2419 31.8685 42.0863 31.8685 41.9241C31.8685 41.7619 31.933 41.6063 32.0477 41.4916C32.1624 41.3769 32.3179 41.3125 32.4801 41.3125H41.1147C41.2765 41.3125 41.4318 41.3766 41.5464 41.4908C41.661 41.605 41.7257 41.76 41.7263 41.9218V41.9241Z" fill="#343434"/>
</svg>
