<svg width="45" height="50" viewBox="0 0 45 50" fill="none" xmlns="http://www.w3.org/2000/svg">
<path d="M19.6852 8.8869V9.27633L20.0628 9.37168C21.1471 9.64552 21.843 9.98431 22.2665 10.3909C22.6679 10.7763 22.8647 11.2614 22.8647 11.9467C22.8647 12.6208 22.6091 13.1642 22.1678 13.565C21.7188 13.9729 21.0502 14.256 20.2031 14.3351L19.7496 14.3775V14.833V15.7227C19.7496 15.7689 19.7326 15.8029 19.7103 15.8253C19.6883 15.8476 19.657 15.8629 19.6159 15.8629C19.5313 15.8629 19.4714 15.7985 19.4714 15.7227V14.8004V14.3515L19.025 14.3033C18.0052 14.1933 17.0774 13.8344 16.2553 13.2441L16.2472 13.2383L16.2388 13.2327C16.1081 13.1467 16.0663 13.0646 16.0663 12.945C16.0663 12.7606 16.2016 12.6312 16.3719 12.6312C16.4518 12.6312 16.5125 12.659 16.5333 12.6765L16.547 12.688L16.5615 12.6986C17.2923 13.2291 18.0365 13.6038 18.9324 13.7727L19.5251 13.8844V13.2814V10.3626V9.97742L19.1527 9.87912C18.1085 9.60351 17.4218 9.28498 16.9965 8.8877C16.5971 8.51465 16.3885 8.03456 16.3885 7.31357C16.3885 6.66939 16.6394 6.13612 17.0757 5.74031C17.5186 5.33858 18.1758 5.05946 19.0021 4.99072L19.4606 4.95258V4.49244V4.17778C19.4606 4.10204 19.5206 4.0376 19.6051 4.0376C19.6463 4.0376 19.6775 4.05288 19.6996 4.07518C19.7218 4.09762 19.7389 4.13157 19.7389 4.17778V4.50329V4.94413L20.1762 4.99935C20.9621 5.09858 21.6217 5.34432 22.2354 5.73796L22.2495 5.74696L22.2641 5.75501C22.3348 5.79396 22.3789 5.83419 22.4043 5.87068C22.4259 5.90149 22.4458 5.94518 22.4458 6.02236C22.4458 6.19805 22.3083 6.33615 22.1294 6.33615C22.0868 6.33615 22.0342 6.32686 21.9454 6.27657C21.4041 5.94022 20.8528 5.70179 20.3026 5.56889L19.6852 5.41976V6.05492V8.8869ZM18.8804 9.05831L19.5358 9.2727V8.58308V5.95726V5.40229L18.9839 5.45997C18.4415 5.51664 17.9769 5.6956 17.6414 6.00739C17.2982 6.32639 17.1287 6.74971 17.1287 7.20507C17.1287 7.60119 17.2229 7.99235 17.5474 8.33271C17.8453 8.64506 18.2936 8.86639 18.8804 9.05831ZM19.6852 13.3356V13.8963L20.2422 13.8323C20.7815 13.7704 21.254 13.5972 21.599 13.287C21.9555 12.9665 22.1353 12.5351 22.1353 12.0552C22.1353 11.6341 22.0255 11.2328 21.6906 10.8905C21.3821 10.575 20.9241 10.3547 20.3365 10.1681L19.6852 9.96135V10.6447V13.3356Z" stroke="#343434"/>
<path d="M11.13 10.2212H10.63V10.2296L10.6303 10.238L11.13 10.2212ZM11.13 10.2212V9.94992C11.13 6.64051 13.0635 3.62407 16.0389 2.26776M11.13 10.2212C11.2159 12.7711 12.4727 15.1907 14.4921 16.7315M16.0389 2.26776C17.1238 1.77948 18.2732 1.52992 19.4655 1.52992C21.8501 1.52992 24.1274 2.57157 25.7171 4.37276M16.0389 2.26776L15.8315 1.81279L15.8337 1.8118L16.0389 2.26776ZM14.4921 16.7315L14.1888 17.129L14.3231 17.2315H14.4921V16.7315ZM14.4921 16.7315H24.4389M24.4389 16.7315V17.2315H24.6058L24.7393 17.1312L24.4389 16.7315ZM24.4389 16.7315C24.9008 16.3843 25.3304 15.9937 25.7171 15.5488C27.0706 14.008 27.8117 12.0224 27.8117 9.96077C27.8117 7.89917 27.0706 5.91353 25.7171 4.37276M25.7171 4.37276L26.0928 4.04278L26.092 4.04189L25.7171 4.37276ZM1.98883 18.2289V17.7289H1.48883V18.2289H1.98883ZM1.98883 18.2289H14.2558H24.6859H36.9529M1.98883 18.2289V43.2718M36.9529 18.2289V43.2718M36.9529 18.2289V17.7289H37.4529V18.2289H36.9529ZM1.98883 43.2718H1.48883V43.7718H1.98883V43.2718ZM1.98883 43.2718H36.9529M36.9529 43.2718V43.7718H37.4529V43.2718H36.9529ZM37.7074 44.5395L37.5628 44.2909H37.2751H1.23692C1.09888 44.2909 0.985001 44.1832 0.985001 44.0314V17.4693C0.985001 17.3209 1.10319 17.2173 1.22397 17.2205L1.22396 17.2206H1.23692H12.2364H13.3726L12.605 16.3829C11.0855 14.7243 10.1778 12.5516 10.1047 10.2675V10.2672V10.2665V10.2659V10.2653V10.2646V10.264V10.2634V10.2627V10.2621V10.2614V10.2608V10.2602V10.2595V10.2589V10.2583V10.2576V10.257V10.2564V10.2557V10.2551V10.2545V10.2538V10.2532V10.2525V10.2519V10.2513V10.2506V10.25V10.2494V10.2487V10.2481V10.2475V10.2468V10.2462V10.2456V10.2449V10.2443V10.2436V10.243V10.2424V10.2417V10.2411V10.2405V10.2398V10.2392V10.2386V10.2379V10.2373V10.2367V10.236V10.2354V10.2347V10.2341V10.2335V10.2328V10.2322V10.2316V10.2309V10.2303V10.2297V10.229V10.2284V10.2278V10.2271V10.2265V10.2258V10.2252V10.2246V10.2239V10.2233V10.2227V10.222V10.2214V10.2208V10.2201V10.2195V10.2189V10.2182V10.2176V10.2169V10.2163V10.2157V10.215V10.2144V10.2138V10.2131V10.2125V10.2119V10.2112V10.2106V10.2099V10.2093V10.2087V10.208V10.2074V10.2068V10.2061V10.2055V10.2049V10.2042V10.2036V10.203V10.2023V10.2017V10.201V10.2004V10.1998V10.1991V10.1985V10.1979V10.1972V10.1966V10.196V10.1953V10.1947V10.1941V10.1934V10.1928V10.1921V10.1915V10.1909V10.1902V10.1896V10.189V10.1883V10.1877V10.1871V10.1864V10.1858V10.1852V10.1845V10.1839V10.1832V10.1826V10.182V10.1813V10.1807V10.1801V10.1794V10.1788V10.1782V10.1775V10.1769V10.1763V10.1756V10.175V10.1743V10.1737V10.1731V10.1724V10.1718V10.1712V10.1705V10.1699V10.1693V10.1686V10.168V10.1674V10.1667V10.1661V10.1654V10.1648V10.1642V10.1635V10.1629V10.1623V10.1616V10.161V10.1604V10.1597V10.1591V10.1585V10.1578V10.1572V10.1565V10.1559V10.1553V10.1546V10.154V10.1534V10.1527V10.1521V10.1515V10.1508V10.1502V10.1496V10.1489V10.1483V10.1476V10.147V10.1464V10.1457V10.1451V10.1445V10.1438V10.1432V10.1426V10.1419V10.1413V10.1406V10.14V10.1394V10.1387V10.1381V10.1375V10.1368V10.1362V10.1356V10.1349V10.1343V10.1337V10.133V10.1324V10.1317V10.1311V10.1305V10.1298V10.1292V10.1286V10.1279V10.1273V10.1267V10.126V10.1254V10.1248V10.1241V10.1235V10.1228V10.1222V10.1216V10.1209V10.1203V10.1197V10.119V10.1184V10.1178V10.1171V10.1165V10.1159V10.1152V10.1146V10.1139V10.1133V10.1127V10.112V10.1114V10.1108V10.1101V10.1095V10.1089V10.1082V10.1076V10.107V10.1063V10.1057V10.105V10.1044V10.1038V10.1031V10.1025V10.1019V10.1012V10.1006V10.1V10.0993V10.0987V10.0981V10.0974V10.0968V10.0961V10.0955V10.0949V10.0942V10.0936V10.093V10.0923V10.0917V10.0911V10.0904V10.0898V10.0892V10.0885V10.0879V10.0872V10.0866V10.086V10.0853V10.0847V10.0841V10.0834V10.0828V10.0822V10.0815V10.0809V10.0803V10.0796V10.079V10.0783V10.0777V10.0771V10.0764V10.0758V10.0752V10.0745V10.0739V10.0733V10.0726V10.072V10.0714V10.0707V10.0701V10.0694V10.0688V10.0682V10.0675V10.0669V10.0663V10.0656V10.065V10.0644V10.0637V10.0631V10.0624V10.0618V10.0612V10.0605V10.0599V10.0593V10.0586V10.058V10.0574V10.0567V10.0561V10.0555V10.0548V10.0542V10.0535V10.0529V10.0523V10.0516V10.051V10.0504V10.0497V10.0491V10.0485V10.0478V10.0472V10.0466V10.0459V10.0453V10.0446V10.044V10.0434V10.0427V10.0421V10.0415V10.0408V10.0402V10.0396V10.0389V10.0383V10.0377V10.037V10.0364V10.0357V10.0351V10.0345V10.0338V10.0332V10.0326V10.0319V10.0313V10.0307V10.03V10.0294V10.0288V10.0281V10.0275V10.0268V10.0262V10.0256V10.0249V10.0243V10.0237V10.023V10.0224V10.0218V10.0211V10.0205V10.0199V10.0192V10.0186V10.0179V10.0173V10.0167V10.016V10.0154V10.0148V10.0141V10.0135V10.0129V10.0122V10.0116V10.011V10.0103V10.0097V10.009V10.0084V10.0078V10.0071V10.0065V10.0059V10.0052V10.0046V10.004V10.0033V10.0027V10.0021V10.0014V10.0008V10.0001V9.99951V9.99887V9.99824V9.9976V9.99697V9.99633V9.99569V9.99506V9.99442V9.99379V9.99315V9.99251V9.99188V9.99124V9.99061V9.98997V9.98934V9.9887V9.98806V9.98743V9.98679V9.98616V9.98552V9.98489V9.98425V9.98361V9.98298V9.98234V9.98171V9.98107V9.98043V9.9798V9.97916V9.97853V9.97789V9.97726V9.97662V9.97598V9.97535V9.97471V9.97408V9.97344V9.97281V9.97217V9.97153V9.9709V9.97026V9.96963V9.96899V9.96836V9.96772V9.96708V9.96645V9.96581V9.96518V9.96454V9.9639V9.96327V9.96263V9.962V9.96136V9.96073V9.96009V9.95945V9.95882V9.95818V9.95755V9.95691V9.95628V9.95564V9.955V9.95437V9.95373V9.9531V9.95246V9.95183V9.95119V9.95055V9.94992C10.1047 6.23758 12.2693 2.85765 15.6125 1.33386L15.6135 1.33342C16.8253 0.777943 18.1183 0.5 19.4547 0.5C22.1343 0.5 24.6829 1.66288 26.4578 3.69278L26.4584 3.69341C27.9677 5.41367 28.8048 7.64 28.8048 9.94992C28.8048 12.2598 27.9677 14.4862 26.4584 16.2064L26.4534 16.2121L26.4486 16.218C26.3914 16.2873 26.3525 16.3338 26.3178 16.3689L25.4746 17.2206H26.6731H36.9421H37.4421V16.7206V13.064C37.4421 12.9122 37.556 12.8045 37.6941 12.8045H43.7631C43.9011 12.8045 44.015 12.9122 44.015 13.064V17.4693V43.985C44.0148 43.9862 44.0146 43.9874 44.0144 43.9887C44.013 43.9974 44.0113 44.0091 44.0097 44.0215C44.0083 44.033 44.0068 44.0471 44.0057 44.0633L43.9935 44.088V44.1357C43.9916 44.1395 43.9899 44.1424 43.9884 44.145L43.9183 44.263V44.2761L40.9464 49.3786L40.9423 49.3856L40.9385 49.3927C40.9021 49.46 40.8193 49.51 40.7339 49.51C40.6712 49.51 40.5781 49.4678 40.5181 49.3728L37.7074 44.5395ZM40.3126 47.9939L40.7461 48.7381L41.1774 47.9927L42.8854 45.0413L43.3196 44.2909H42.4526H40.7339C40.5959 44.2909 40.482 44.1832 40.482 44.0314C40.482 43.8796 40.5959 43.7718 40.7339 43.7718H43.0219H43.5219V43.2718V18.2289V17.7289H43.0219H38.4567H37.9567V18.2289V43.8144V43.9494L38.0247 44.066L40.3126 47.9939ZM38.4567 13.3236H37.9567V13.8236V16.7206V17.2206H38.4567H43.0219H43.5219V16.7206V13.8236V13.3236H43.0219H38.4567Z" stroke="#343434"/>
<path d="M30.3253 23.1211H10.421C10.283 23.1211 10.1691 23.0134 10.1691 22.8616C10.1691 22.7098 10.283 22.6021 10.421 22.6021H30.3253C30.4633 22.6021 30.5772 22.7098 30.5772 22.8616C30.5772 23.0134 30.4633 23.1211 30.3253 23.1211Z" stroke="#343434"/>
<path d="M6.95148 28.354H33.8056C33.9375 28.354 34.0575 28.4664 34.0575 28.6135C34.0575 28.7653 33.9436 28.8731 33.8056 28.8731H6.95148C6.81344 28.8731 6.69957 28.7653 6.69957 28.6135C6.69957 28.4617 6.81344 28.354 6.95148 28.354Z" stroke="#343434"/>
<path d="M6.95148 33.4199H33.8056C33.9375 33.4199 34.0575 33.5323 34.0575 33.6795C34.0575 33.8313 33.9436 33.939 33.8056 33.939H6.95148C6.81344 33.939 6.69957 33.8313 6.69957 33.6795C6.69957 33.5277 6.81344 33.4199 6.95148 33.4199Z" stroke="#343434"/>
<path d="M22.1188 39.6474L22.3013 39.7189L22.4838 39.6474L26.0734 38.2402C26.1478 38.2151 26.2157 38.2187 26.2685 38.2382L30.1425 39.7557C30.1425 39.7558 30.1426 39.7558 30.1427 39.7558C30.2706 39.8062 30.333 39.9427 30.2738 40.081L30.2675 40.0958L30.2621 40.1111C30.2301 40.2016 30.1388 40.266 30.0353 40.266C30.0252 40.266 29.9905 40.2616 29.946 40.245L26.3507 38.8357L26.1683 38.7642L25.9858 38.8357L22.3961 40.2428C22.3218 40.2679 22.2539 40.2644 22.2011 40.2449L18.606 38.8357L18.4235 38.7642L18.2411 38.8357L14.6514 40.2428C14.5771 40.2679 14.5093 40.2644 14.4564 40.245L10.5931 38.7273C10.4658 38.6773 10.3942 38.5228 10.4472 38.3849C10.499 38.2504 10.6497 38.1873 10.7753 38.2367L10.7756 38.2368L14.3741 39.6474L14.5566 39.7189L14.739 39.6474L18.3287 38.2402C18.403 38.2151 18.4709 38.2187 18.5238 38.2381L22.1188 39.6474Z" stroke="#343434"/>
</svg>
