 <svg width="39" height="37" viewBox="0 0 39 37" fill="none" xmlns="http://www.w3.org/2000/svg">
<path d="M19.67 12.3331C19.8867 12.3331 20.1034 12.256 20.2684 12.1004C20.42 11.9462 20.5034 11.7612 20.5034 11.5608C20.5034 11.3604 20.4218 11.1754 20.2534 11.0058C19.9384 10.7298 19.42 10.7144 19.07 11.0211C18.92 11.1769 18.8367 11.3619 18.8367 11.5623C18.8367 11.7627 18.92 11.9477 19.07 12.1019C19.2367 12.256 19.4534 12.3331 19.67 12.3331Z" fill="#FCFCFC"/>
<path d="M18.8367 18.4997H20.5033C20.9633 18.4997 21.3367 18.1544 21.3367 17.7289C21.3367 17.3034 20.9633 16.958 20.5033 16.958H18.8367C18.3767 16.958 18.0033 17.3034 18.0033 17.7289C18.0033 18.1544 18.3767 18.4997 18.8367 18.4997Z" fill="#FCFCFC"/>
<path d="M17.17 24.6666H22.17C22.63 24.6666 23.0034 24.3213 23.0034 23.8958C23.0034 23.4703 22.63 23.125 22.17 23.125H17.17C16.71 23.125 16.3367 23.4704 16.3367 23.8959C16.3367 24.3214 16.71 24.6666 17.17 24.6666Z" fill="#FCFCFC"/>
<path d="M23.0034 30.833H16.3368C15.8768 30.833 15.5034 31.1784 15.5034 31.6039C15.5034 32.0294 15.8768 32.3747 16.3368 32.3747H23.0034C23.4634 32.3747 23.8368 32.0294 23.8368 31.6039C23.8367 31.1783 23.4634 30.833 23.0034 30.833Z" fill="#FCFCFC"/>
<path d="M38.0034 35.4584H37.17V31.6042C37.17 31.1787 36.7967 30.8334 36.3367 30.8334C35.8767 30.8334 35.5033 31.1787 35.5033 31.6042V35.4584H33.8367V33.1459C33.8367 32.7204 33.4633 32.375 33.0033 32.375C32.5433 32.375 32.17 32.7204 32.17 33.1459V35.4584H28.8367V30.0625C28.8367 29.0589 28.1383 28.211 27.17 27.8919V22.3542C27.17 21.3506 26.4717 20.5027 25.5034 20.1836V16.1875C25.5034 15.1839 24.805 14.336 23.8368 14.0169V10.0209C23.8368 8.94938 23.0401 8.05212 21.9668 7.79161L20.5034 3.72934V0.770857C20.5034 0.345357 20.13 0 19.67 0C19.21 0 18.8367 0.345357 18.8367 0.770857V3.73086L17.3733 7.79161C16.3 8.05212 15.5033 8.94786 15.5033 10.0209V12.4752C14.535 12.7943 13.8367 13.6422 13.8367 14.6459V18.6419C12.8684 18.961 12.17 19.8089 12.17 20.8125V26.3501C11.2017 26.6693 10.5034 27.5172 10.5034 28.5208V35.4583H7.17004V33.1458C7.17004 32.7204 6.79669 32.375 6.33669 32.375C5.87669 32.375 5.50333 32.7204 5.50333 33.1459V35.4584H3.83669V31.6042C3.83669 31.1787 3.46333 30.8334 3.00333 30.8334C2.54333 30.8334 2.17005 31.1786 2.17005 31.6041V35.4583H1.33669C0.876686 35.4583 0.503326 35.8036 0.503326 36.2291C0.503326 36.6546 0.876686 37 1.33669 37H38.0033C38.4633 37 38.8367 36.6546 38.8367 36.2291C38.8367 35.8036 38.4634 35.4584 38.0034 35.4584ZM19.67 6.29462L20.18 7.70836H19.1617L19.67 6.29462ZM27.17 35.4584H12.17V28.5209C12.17 28.0969 12.545 27.75 13.0034 27.75H14.67C15.13 27.75 15.5034 27.4046 15.5034 26.9791C15.5034 26.5536 15.13 26.2083 14.67 26.2083H13.8367V20.8125C13.8367 20.3885 14.2117 20.0416 14.67 20.0416H16.3367C16.7967 20.0416 17.17 19.6963 17.17 19.2708C17.17 18.8453 16.7967 18.5 16.3367 18.5H15.5033V14.6459C15.5033 14.2219 15.8783 13.875 16.3367 13.875H18.0033C18.4633 13.875 18.8367 13.5296 18.8367 13.1041C18.8367 12.6786 18.4633 12.3333 18.0033 12.3333H17.17V10.0208C17.17 9.59688 17.545 9.25 18.0034 9.25H21.3368C21.795 9.25 22.17 9.59688 22.17 10.0209V13.875H21.3367C20.8767 13.875 20.5033 14.2204 20.5033 14.6459C20.5033 15.0714 20.8767 15.4167 21.3367 15.4167H23.0033C23.4617 15.4167 23.8367 15.7636 23.8367 16.1876V20.0417H23.0033C22.5433 20.0417 22.17 20.3871 22.17 20.8126C22.17 21.2381 22.5433 21.5834 23.0033 21.5834H24.67C25.1284 21.5834 25.5034 21.9303 25.5034 22.3543V27.75H24.67C24.21 27.75 23.8367 28.0954 23.8367 28.5209C23.8367 28.9464 24.21 29.2917 24.67 29.2917H26.3367C26.795 29.2917 27.17 29.6386 27.17 30.0626V35.4584Z" fill="#FCFCFC"/>
</svg>
