<svg width="47" height="39" viewBox="0 0 47 39" fill="none" xmlns="http://www.w3.org/2000/svg">
<path d="M12.6845 34.5361H10.9349C10.8965 34.5363 10.8584 34.5436 10.823 34.5578C10.7875 34.5719 10.7553 34.5925 10.7283 34.6184C10.7012 34.6443 10.6798 34.675 10.6652 34.7088C10.6507 34.7426 10.6433 34.7787 10.6435 34.8152V35.3728C10.6435 35.5263 10.7739 35.65 10.9349 35.65H12.6845C12.8442 35.65 12.976 35.5263 12.976 35.3728V34.8152C12.9761 34.7416 12.9456 34.6709 12.8909 34.6186C12.8363 34.5663 12.7621 34.5366 12.6845 34.5361Z" fill="#FCFCFC"/>
<path d="M16.1829 34.5361H14.4334C14.3949 34.5363 14.3569 34.5436 14.3214 34.5578C14.286 34.5719 14.2538 34.5925 14.2267 34.6184C14.1996 34.6443 14.1782 34.675 14.1637 34.7088C14.1491 34.7426 14.1417 34.7787 14.1419 34.8152V35.3728C14.1419 35.5263 14.2723 35.65 14.4334 35.65H16.1829C16.3427 35.65 16.4744 35.5263 16.4744 35.3728V34.8152C16.4746 34.7416 16.444 34.6709 16.3894 34.6186C16.3347 34.5663 16.2605 34.5366 16.1829 34.5361Z" fill="#FCFCFC"/>
<path d="M8.93173 30.8701H9.79705V32.5546H8.93173V30.8701Z" fill="#FCFCFC"/>
<path d="M11.1266 30.8701H11.9913V32.5546H11.1266V30.8701Z" fill="#FCFCFC"/>
<path d="M13.3196 30.8701H14.1856V32.5546H13.3196V30.8701Z" fill="#FCFCFC"/>
<path d="M15.5145 30.8701H16.3792V32.5546H15.5145V30.8701Z" fill="#FCFCFC"/>
<path d="M17.7075 30.8701H18.5734V32.5546H17.7075V30.8701Z" fill="#FCFCFC"/>
<path d="M19.903 30.8701H20.7677V32.5546H19.903V30.8701Z" fill="#FCFCFC"/>
<path d="M22.096 30.8701H22.9613V32.5546H22.096V30.8701Z" fill="#FCFCFC"/>
<path d="M24.2903 30.8701H25.1556V32.5546H24.2903V30.8701Z" fill="#FCFCFC"/>
<path d="M4.76101 20.9896C4.55273 20.8245 4.36026 20.6423 4.18587 20.445L3.95895 20.1783L3.60552 20.234C2.99973 20.3311 2.42003 20.3268 1.8449 20.1591C1.54317 20.0701 1.25493 19.9443 0.987405 19.7847C0.698532 19.6226 0.429222 19.4153 0.147522 19.1758C0.184039 19.5415 0.349016 19.8806 0.560943 20.1962C0.78526 20.5026 1.07478 20.7866 1.42952 20.9908C2.03726 21.3584 2.7865 21.4679 3.48293 21.3992C3.68051 21.5843 3.88266 21.7297 4.11349 21.8689C4.43106 22.0595 4.78514 22.1994 5.15487 22.2792C5.89694 22.4364 6.69574 22.2848 7.23241 21.8547C6.53272 21.838 5.95237 21.708 5.45744 21.4413C5.20977 21.3135 4.97643 21.1622 4.76101 20.9896Z" fill="#FCFCFC"/>
<path d="M12.288 23.1388C12.107 23.0645 11.9395 22.9634 11.7918 22.8393C11.6604 22.729 11.5443 22.6035 11.4462 22.4655C11.3532 22.3376 11.2743 22.2009 11.2108 22.0577L11.023 21.5806L10.513 21.6876C10.024 21.7898 9.55904 21.8467 9.10584 21.7867C8.65395 21.7303 8.18184 21.5385 7.72799 21.1338C7.71299 21.7421 8.1675 22.343 8.7961 22.64C9.28125 22.869 9.81727 22.9241 10.3207 22.8783C10.4009 22.9884 10.4889 23.0881 10.5919 23.1896C10.8084 23.3931 11.0771 23.5584 11.3686 23.6481C11.96 23.8325 12.5736 23.7001 12.976 23.3647C12.7151 23.2892 12.4856 23.231 12.288 23.1388Z" fill="#FCFCFC"/>
<path d="M43.2059 31.7301C43.2841 29.821 43.8573 28.9447 44.7233 27.6173L44.9319 27.2974C46.5432 24.8096 47.089 22.869 46.553 21.5267C46.1853 20.6028 45.4425 20.2959 45.2371 20.2266C44.2473 19.8219 42.7736 19.6065 40.9732 19.6065C40.1848 19.6065 38.9752 19.6548 37.4226 19.8553V16.2605H35.0431V14.6057H29.8225L28.0117 11.1402C27.9406 11.1112 27.8663 11.0901 27.7939 11.0641C27.757 10.7317 27.632 10.4135 27.4305 10.1393C27.229 9.86506 26.9576 9.64375 26.6417 9.496C26.6179 8.90208 26.4155 8.32703 26.0583 7.83882C25.7011 7.3506 25.2041 6.96964 24.6261 6.74095C24.3519 6.05819 23.8656 5.47058 23.2317 5.05594C22.5978 4.64131 21.8461 4.41922 21.0761 4.41909C20.7879 4.41909 20.5016 4.45127 20.2219 4.51315C19.8273 4.10415 19.3504 3.77424 18.8193 3.54287C18.2883 3.3115 17.7138 3.18334 17.1297 3.16595C16.2266 1.79586 14.6303 0.935059 12.9134 0.935059C10.1655 0.935059 7.92948 3.07375 7.92948 5.70255C7.92948 8.33012 10.1648 10.4688 12.9134 10.4688C13.2474 10.4686 13.5806 10.436 13.9078 10.3716C14.3125 10.7572 14.7936 11.0628 15.3234 11.2709C15.8533 11.479 16.4213 11.5854 16.9947 11.5839C17.6884 11.5848 18.3721 11.428 18.9888 11.1266C19.6005 11.5103 20.3125 11.7195 21.0546 11.7238C21.4836 12.1618 22.039 12.4702 22.6516 12.6106L22.3894 14.6076H19.9389L17.0306 15.5544V17.3304L15.2459 18.1083V21.317H16.9954V22.6939L12.914 24.645V28.4447C10.3754 29.1316 8.78697 29.3414 8.75502 29.3451L8.23139 29.4107V31.7332H7.62756V38.0651H46.1507V31.7325H43.2052L43.2059 31.7301ZM21.4583 10.8234C21.3324 10.8395 21.2072 10.8605 21.0768 10.8605C20.3206 10.8599 19.5947 10.5782 19.0547 10.0758C18.4583 10.4941 17.7363 10.7201 16.9947 10.7207C16.4551 10.7202 15.923 10.6006 15.4405 10.3714C14.9579 10.1423 14.5381 9.8097 14.2143 9.40008C13.7953 9.5355 13.3559 9.6049 12.9134 9.60553C10.6591 9.60553 8.83261 7.85857 8.83261 5.70255C8.83261 3.54592 10.6591 1.79833 12.9134 1.79833C14.5501 1.79833 15.9573 2.72101 16.6081 4.05088C17.2473 3.98349 17.8938 4.08515 18.476 4.34464C19.0581 4.60412 19.5534 5.01132 19.9069 5.52123C20.275 5.36493 20.6736 5.28396 21.0768 5.2836C22.4546 5.2836 23.6017 6.20009 23.9068 7.4291C24.4281 7.53923 24.8942 7.81504 25.2277 8.21084C25.5613 8.60664 25.7425 9.0987 25.7411 9.60553C25.7411 9.80232 25.7066 9.98921 25.6557 10.1711C25.6851 10.1693 25.7124 10.1631 25.7411 10.1631C26.2048 10.1631 26.6006 10.4236 26.789 10.7974C26.4435 10.7356 26.0927 10.7039 25.7411 10.7027C24.8191 10.7027 23.6017 10.9137 22.8257 11.2795L22.7644 11.7467C22.2267 11.597 21.7633 11.2694 21.4583 10.8234ZM18.1613 16.8366H36.8207V19.9419C36.3366 20.0117 35.8544 20.0923 35.3744 20.1839H18.1613V16.8366ZM28.0952 22.2706C26.4326 22.9065 24.8092 23.6308 23.2326 24.4402C22.1446 24.9964 21.0367 25.5167 19.9109 26.0003V20.7594H32.8136C31.9879 20.9725 31.1693 21.2101 30.3592 21.4717C30.3347 21.4305 30.2992 21.3961 30.2563 21.372C30.2133 21.3479 30.1645 21.3349 30.1147 21.3343H28.3651C28.3267 21.3344 28.2887 21.3418 28.2533 21.3559C28.2179 21.37 28.1857 21.3906 28.1587 21.4166C28.1317 21.4425 28.1103 21.4732 28.0958 21.507C28.0814 21.5408 28.074 21.5769 28.0743 21.6134V22.1709C28.0743 22.2062 28.0821 22.2396 28.0952 22.2706ZM17.5784 24.6122C17.5784 24.4588 17.6983 24.2812 17.8425 24.215L19.0638 23.6704C19.2092 23.6048 19.3272 23.6772 19.3272 23.8307V25.0949C19.3233 25.1755 19.2957 25.2535 19.2475 25.32C19.1994 25.3865 19.1326 25.4388 19.0547 25.4712L17.8516 25.9007C17.7009 25.9545 17.5777 25.8728 17.5777 25.7193L17.5784 24.6122ZM15.5373 25.5225C15.5373 25.3691 15.6573 25.1902 15.8021 25.1253L16.732 24.7106C16.8767 24.6457 16.9954 24.7181 16.9954 24.8715V25.9273C16.9915 26.0079 16.964 26.0859 16.9158 26.1524C16.8676 26.2189 16.8008 26.2712 16.7228 26.3035L15.8119 26.629C15.6619 26.6822 15.538 26.6006 15.538 26.4471L15.5373 25.5225ZM13.4963 26.4322C13.4963 26.2788 13.6163 26.1012 13.7611 26.0362L14.6909 25.6209C14.8357 25.556 14.9544 25.6284 14.9544 25.7818V26.6569C14.9504 26.7375 14.9228 26.8154 14.8747 26.8819C14.8265 26.9484 14.7597 27.0008 14.6818 27.0331L13.7708 27.358C13.6209 27.4112 13.497 27.3302 13.497 27.1767V26.4322H13.4963ZM9.43449 30.4076C11.1651 30.1242 16.9139 28.9831 23.8005 25.4551C32.0703 21.2161 38.565 20.7588 40.9738 20.7588C42.6014 20.7588 43.9538 20.9487 44.782 21.2934L44.8517 21.317C44.855 21.3182 45.2365 21.4531 45.4288 21.9364C45.4914 22.0924 45.5423 22.3151 45.5449 22.6134C45.204 22.3351 44.8189 22.1098 44.4038 21.9457C40.7925 20.9785 32.5352 21.6814 23.3793 26.3741C16.8311 29.7294 11.2271 30.5252 9.43449 30.7028V30.4076ZM41.9167 34.4344C39.8379 34.8267 31.3099 36.3373 23.4914 36.3373C19.322 36.3373 16.001 35.9121 13.6183 35.0749C12.7014 34.7524 11.2812 34.1219 9.43449 32.3619V31.261C11.2518 31.0846 16.9869 30.2826 23.6538 26.866C32.5345 22.3151 40.7293 21.575 44.1905 22.4649C44.5583 22.6066 45.0832 22.8764 45.4693 23.3214C45.3141 24.0949 44.8857 25.1828 43.9075 26.6915L43.7028 27.0077C42.8036 28.3834 42.0934 29.4707 42.0034 31.6775C41.9525 32.5957 41.9236 33.5149 41.9167 34.4344Z" fill="#FCFCFC"/>
</svg>
