<svg width="38" height="39" viewBox="0 0 38 39" fill="none" xmlns="http://www.w3.org/2000/svg">
<path d="M7.66648 29.5116L8.11233 28.9853L7.52934 28.6166L1.13532 24.5735L2.28267 23.595C2.3273 23.5675 2.37688 23.5488 2.42873 23.54C2.48807 23.5299 2.54891 23.533 2.60688 23.5492L2.63706 23.5576L2.66796 23.5628L10.6849 24.9187L11.0064 24.9731L11.2269 24.7329L17.8709 17.4957L18.3417 16.9829L17.7651 16.5929L2.26499 6.11076L4.18745 4.59764L24.2326 10.2353L24.5839 10.3341L24.8332 10.0676L30.8198 3.66724C32.7929 1.96658 34.5338 1.35211 35.7271 1.66223L35.7742 1.67446L35.8226 1.67896C36.0264 1.69785 36.2187 1.7814 36.3716 1.91742C36.5245 2.05343 36.6299 2.23477 36.6724 2.43494L36.6788 2.46504L36.6883 2.49434C37.0764 3.69898 36.4993 5.50755 34.7242 7.57215L28.3241 13.5585L28.0576 13.8078L28.1564 14.1591L33.7933 34.2014L32.2665 36.1098L21.7988 20.6351L21.4078 20.057L20.8949 20.5303L13.6577 27.2082L13.4188 27.4286L13.4729 27.7491L14.8289 35.7745L14.8326 35.7965L14.8379 35.8181C14.8511 35.8716 14.8528 35.9272 14.843 35.9814C14.8347 36.0275 14.8182 36.0716 14.7943 36.1118L13.8182 37.2565L9.77491 30.8705L9.40868 30.2921L8.8833 30.7311C7.78727 31.6467 6.87128 32.194 6.03373 32.355C6.1906 31.5139 6.73861 30.6069 7.66648 29.5116Z" stroke="#FCFCFC" stroke-width="1.2"/>
</svg>
