<svg width="117" height="116" viewBox="0 0 117 116" fill="none" xmlns="http://www.w3.org/2000/svg">
<circle cx="58.5" cy="57.75" r="57.75" fill="#32BA7C"/>
<mask id="mask0_531_11" style="mask-type:alpha" maskUnits="userSpaceOnUse" x="0" y="0" width="117" height="116">
<circle cx="58.5" cy="57.75" r="57.75" fill="#32BA7C"/>
</mask>
<g mask="url(#mask0_531_11)">
<rect x="41.5664" y="81.0051" width="68.0472" height="64.5" transform="rotate(-45.2195 41.5664 81.0051)" fill="#0AA06E"/>
</g>
<path fill-rule="evenodd" clip-rule="evenodd" d="M89.9061 30.7389C87.2016 27.9764 82.7697 27.9294 80.0072 30.6339L49.6654 60.3393C49.6032 60.4002 49.5424 60.462 49.483 60.5245L37.2205 47.9278C34.5238 45.1576 30.0921 45.098 27.3219 47.7947L22.7249 52.2697C19.9547 54.9663 19.8952 59.3981 22.5918 62.1683L44.8657 85.0493C47.1772 87.4238 50.9758 87.4748 53.3502 85.1634L63.2477 75.5286C63.4907 75.3461 63.7245 75.1457 63.9475 74.9274L94.2893 45.222C97.0518 42.5175 97.0988 38.0856 94.3942 35.3231L89.9061 30.7389Z" fill="white"/>
</svg>
